SplineFontDB: 3.0
FontName: LoyalSansSemiboldObliquev1
FullName: Loyal Sans Semibold Oblique
FamilyName: Loyal Sans
Weight: Bold
Copyright: Copyright (c) 2023, Emmet Blanchette
UComments: "2023-12-11: Created with FontForge (http://fontforge.org)"
Version: 001.000
ItalicAngle: 0
UnderlinePosition: -100
UnderlineWidth: 50
Ascent: 800
Descent: 200
InvalidEm: 0
LayerCount: 2
Layer: 0 0 "Back" 1
Layer: 1 0 "Fore" 0
XUID: [1021 65 -877688889 9584006]
FSType: 0
OS2Version: 0
OS2_WeightWidthSlopeOnly: 0
OS2_UseTypoMetrics: 1
CreationTime: 1702354516
ModificationTime: 1703543155
PfmFamily: 17
TTFWeight: 600
TTFWidth: 5
LineGap: 90
VLineGap: 0
OS2TypoAscent: 0
OS2TypoAOffset: 1
OS2TypoDescent: 0
OS2TypoDOffset: 1
OS2TypoLinegap: 90
OS2WinAscent: 0
OS2WinAOffset: 1
OS2WinDescent: 0
OS2WinDOffset: 1
HheadAscent: 0
HheadAOffset: 1
HheadDescent: 0
HheadDOffset: 1
OS2Vendor: 'PfEd'
Lookup: 4 0 1 "'liga' Standard Ligatures in Latin lookup 0" { "'liga' Standard Ligatures in Latin lookup 0-1"  } ['liga' ('DFLT' <'dflt' > 'latn' <'dflt' > ) ]
Lookup: 258 0 0 "'kern' Horizontal Kerning in Latin lookup 0" { "'kern' Horizontal Kerning in Latin lookup 0-1" [75,15,1] } ['kern' ('DFLT' <'dflt' > 'latn' <'dflt' > ) ]
MarkAttachClasses: 1
DEI: 91125

StartChar: A
Encoding: 19 65 0
Width: 481
VWidth: 0
Flags: W
HStem: 0 21G<-0.43457 35.7734 364.776 450.79> 200.36 27.3398<155.671 321.612>
LayerCount: 2
Fore
SplineSet
278.739257812 470.837890625 m 1
 155.670898438 227.700195312 l 1
 321.612304688 227.700195312 l 1
 278.739257812 470.837890625 l 1
318.037109375 611.516601562 m 2
 323.407226562 622.212890625 338.766601562 622.510742188 340.625 611.715820312 c 2
 449.0390625 9.7255859375 l 1
 450.790039062 0 l 1
 440.240234375 0 l 1
 370.959960938 0 l 1
 365.6796875 0 l 1
 364.776367188 4.970703125 l 1
 329.239257812 200.360351562 l 1
 139.283203125 200.360351562 l 1
 35.7734375 5 l 1
 33.1240234375 0 l 1
 27.8203125 0 l 1
 10 0 l 1
 -0.4345703125 0 l 1
 4.5927734375 9.6533203125 l 1
 318.037109375 611.516601562 l 2
EndSplineSet
EndChar

StartChar: B
Encoding: 20 66 1
Width: 462
VWidth: 0
Flags: W
HStem: 0.0400391 34.8604<86.1045 220.318> 371.28 34.8701<151.565 267.579> 584.78 34.8994<183.062 333.404>
LayerCount: 2
Fore
SplineSet
242.181640625 584.780273438 m 2
 183.0625 584.780273438 l 1
 151.565429688 406.150390625 l 1
 175.39453125 406.150390625 l 2
 277.947265625 406.150390625 371.272460938 438.916992188 381.90625 499.221679688 c 0
 393.704101562 566.130859375 294.860351562 584.780273438 242.181640625 584.780273438 c 2
86.1044921875 34.900390625 m 1
 109.93359375 34.900390625 l 2
 266.848632812 34.900390625 360.137695312 120.33203125 374.73046875 203.08984375 c 0
 389.849609375 288.836914062 309.30078125 371.280273438 169.24609375 371.280273438 c 2
 145.416992188 371.280273438 l 1
 86.1044921875 34.900390625 l 1
462.104492188 502.448242188 m 0
 449.638671875 431.748046875 380.278320312 399.224609375 320.708984375 386.907226562 c 1
 396.750976562 366.883789062 473.229492188 310.265625 454.79296875 205.662109375 c 0
 448.604492188 170.56640625 434.676757812 118.638671875 386.423828125 75.6640625 c 0
 337.663085938 32.1669921875 240.989257812 0.0400390625 103.796875 0.0400390625 c 2
 8.0068359375 0.0400390625 l 1
 0.5068359375 0.0400390625 l 1
 1.7978515625 7.3603515625 l 1
 108.443359375 612.1796875 l 1
 109.766601562 619.6796875 l 1
 117.266601562 619.6796875 l 1
 284.65625 619.6796875 l 2
 380.766601562 619.6796875 478.250976562 594.015625 462.104492188 502.448242188 c 0
EndSplineSet
EndChar

StartChar: C
Encoding: 21 67 2
Width: 583
VWidth: 0
Flags: W
HStem: 592.89 40.6299<324.689 498.778>
LayerCount: 2
Fore
SplineSet
105.490234375 51.62890625 m 0
 57.287109375 112.938476562 36.2529296875 202.765625 54.1865234375 304.469726562 c 0
 90.1689453125 508.53515625 237.75 633.51953125 411.666992188 633.51953125 c 0
 527.616210938 633.51953125 604.03515625 574.090820312 598.42578125 451.032226562 c 2
 598.103515625 443.96875 l 1
 590.870117188 442.682617188 l 1
 590.870117188 442.682617188 581.630859375 441.041992188 577.73828125 440.293945312 c 2
 570.525390625 438.909179688 l 1
 569.978515625 445.791992188 l 2
 562.154296875 544.333984375 507.692382812 592.889648438 409.872070312 592.889648438 c 0
 274.552734375 592.889648438 158.70703125 445.630859375 134.453125 308.080078125 c 0
 111.751953125 179.337890625 169.552734375 79.232421875 228.517578125 40.744140625 c 0
 286.268554688 2.830078125 422.98046875 18.154296875 485.543945312 102.400390625 c 0
 493.640625 113.380859375 506.83984375 136.731445312 515.360351562 157.7890625 c 2
 517.719726562 163.620117188 l 1
 523.700195312 163.620117188 l 1
 547.709960938 163.620117188 l 1
 556.030273438 163.620117188 l 1
 553.7109375 155.344726562 l 2
 539.04296875 103.009765625 507.4921875 57.4619140625 457.794921875 22.17578125 c 0
 321.501953125 -74.548828125 165.163085938 -24.255859375 105.490234375 51.62890625 c 0
EndSplineSet
EndChar

StartChar: D
Encoding: 22 68 3
Width: 516
VWidth: 0
Flags: W
HStem: 0 34.8604<86.1162 220.501> 584.78 34.8994<183.082 325.934>
LayerCount: 2
Fore
SplineSet
86.1162109375 34.8603515625 m 1
 143.596679688 34.8603515625 l 2
 273.7890625 34.8603515625 399.3203125 177.118164062 423.837890625 316.108398438 c 0
 454.697265625 491.122070312 368.016601562 584.780273438 240.5625 584.780273438 c 2
 183.08203125 584.780273438 l 1
 86.1162109375 34.8603515625 l 1
117.266601562 619.6796875 m 1
 246.716796875 619.6796875 l 2
 479.203125 619.6796875 538.014648438 478.854492188 513.31640625 338.837890625 c 0
 491.674804688 216.103515625 438.37109375 130.99609375 369.560546875 76.857421875 c 0
 300.791992188 22.671875 217.666992188 0 137.440429688 0 c 2
 8 0 l 1
 0.5 0 l 1
 1.822265625 7.5 l 1
 108.443359375 612.1796875 l 1
 109.766601562 619.6796875 l 1
 117.266601562 619.6796875 l 1
EndSplineSet
EndChar

StartChar: E
Encoding: 23 69 4
Width: 457
VWidth: 0
Flags: W
HStem: 0 34.8799<86.1104 400.519> 314.39 34.8799<141.546 339.545> 584.8 34.8799<183.076 506.715>
LayerCount: 2
Fore
SplineSet
135.395507812 314.389648438 m 1
 86.1103515625 34.8798828125 l 1
 403.689453125 34.8798828125 l 1
 412.563476562 34.8798828125 l 1
 409.541992188 26.1298828125 l 1
 402.676757812 6.25 l 1
 400.518554688 0 l 1
 394.1796875 0 l 1
 8 0 l 1
 0.5 0 l 1
 1.822265625 7.5 l 1
 108.443359375 612.1796875 l 1
 109.766601562 619.6796875 l 1
 117.266601562 619.6796875 l 1
 503.446289062 619.6796875 l 1
 510.443359375 619.6796875 l 1
 509.697265625 612.69921875 l 1
 507.572265625 592.819335938 l 1
 506.71484375 584.799804688 l 1
 498.67578125 584.799804688 l 1
 183.076171875 584.799804688 l 1
 141.545898438 349.26953125 l 1
 338.1953125 349.26953125 l 1
 345.6953125 349.26953125 l 1
 344.373046875 341.76953125 l 1
 340.8671875 321.889648438 l 1
 339.544921875 314.389648438 l 1
 332.044921875 314.389648438 l 1
 135.395507812 314.389648438 l 1
EndSplineSet
EndChar

StartChar: F
Encoding: 24 70 5
Width: 454
VWidth: 0
Flags: W
HStem: 0 21G<0.5 81.2822> 314.39 34.8799<141.546 339.545> 584.8 34.8799<183.076 509.529>
LayerCount: 2
Fore
SplineSet
509.78515625 619.6796875 m 1
 509.739257812 613.4296875 l 1
 509.59375 593.549804688 l 1
 509.529296875 584.799804688 l 1
 500.655273438 584.799804688 l 1
 183.076171875 584.799804688 l 1
 141.545898438 349.26953125 l 1
 338.1953125 349.26953125 l 1
 345.6953125 349.26953125 l 1
 344.373046875 341.76953125 l 1
 340.8671875 321.889648438 l 1
 339.544921875 314.389648438 l 1
 332.044921875 314.389648438 l 1
 135.395507812 314.389648438 l 1
 81.2822265625 7.5 l 1
 79.9599609375 0 l 1
 72.4599609375 0 l 1
 8 0 l 1
 0.5 0 l 1
 1.822265625 7.5 l 1
 108.443359375 612.1796875 l 1
 109.766601562 619.6796875 l 1
 117.266601562 619.6796875 l 1
 503.446289062 619.6796875 l 1
 509.78515625 619.6796875 l 1
EndSplineSet
EndChar

StartChar: G
Encoding: 25 71 6
Width: 580
VWidth: 0
Flags: W
HStem: 428.175 21G<559.51 566.979> 592.97 40.5498<320.057 485.054>
LayerCount: 2
Fore
SplineSet
560.3046875 428.174804688 m 1
 559.509765625 434.466796875 l 2
 544.708007812 551.638671875 484.110351562 592.959960938 403.107421875 592.969726562 c 0
 255.294921875 592.969726562 155.3046875 419.185546875 135.427734375 306.45703125 c 0
 113.677734375 183.107421875 166.823242188 90.0830078125 227.353515625 52.130859375 c 0
 229.528320312 50.763671875 231.762695312 49.4658203125 234.052734375 48.2373046875 c 0
 291.9140625 17.193359375 383.517578125 30.943359375 438.583007812 110.96484375 c 0
 458.2265625 139.428710938 469.92578125 184.403320312 474.359375 209.549804688 c 2
 491.728515625 307.546875 l 1
 493.025390625 314.859375 l 1
 500.518554688 314.859375 l 1
 565.478515625 314.859375 l 1
 572.985351562 314.859375 l 1
 571.686523438 307.533203125 l 1
 554.318359375 209.543945312 l 2
 538.630859375 120.57421875 500.56640625 69.2470703125 452.545898438 34.185546875 c 0
 390.28515625 -11.1533203125 317.009765625 -16.0302734375 289.444335938 -16.0302734375 c 0
 238.018554688 -16.0302734375 162.109375 -2.62109375 106.520507812 62.2978515625 c 0
 57.322265625 119.891601562 37.6689453125 206.024414062 54.8544921875 303.491210938 c 0
 72.1162109375 401.38671875 123.049804688 498.836914062 192.779296875 556.231445312 c 0
 280.657226562 628.463867188 355.744140625 633.51953125 410.59765625 633.51953125 c 0
 511.254882812 633.51953125 594.875 566.374023438 587.67578125 439.510742188 c 2
 587.265625 432.294921875 l 1
 579.888671875 431.205078125 l 1
 579.888671875 431.205078125 572.3125 430.087890625 566.979492188 429.23828125 c 2
 560.3046875 428.174804688 l 1
EndSplineSet
EndChar

StartChar: H
Encoding: 26 72 7
Width: 525
VWidth: 0
Flags: W
HStem: 0 21G<0.5 81.293 375.931 456.803> 310.95 34.8799<140.95 430.76> 599.68 20G<108.443 189.237 483.874 564.747>
LayerCount: 2
Fore
SplineSet
564.747070312 619.6796875 m 1
 563.423828125 612.1796875 l 1
 456.802734375 7.5 l 1
 455.48046875 0 l 1
 447.98046875 0 l 1
 383.430664062 0 l 1
 375.930664062 0 l 1
 377.252929688 7.5 l 1
 430.759765625 310.950195312 l 1
 134.799804688 310.950195312 l 1
 81.29296875 7.5 l 1
 79.970703125 0 l 1
 72.470703125 0 l 1
 8 0 l 1
 0.5 0 l 1
 1.822265625 7.5 l 1
 108.443359375 612.1796875 l 1
 109.766601562 619.6796875 l 1
 117.266601562 619.6796875 l 1
 181.737304688 619.6796875 l 1
 189.237304688 619.6796875 l 1
 187.9140625 612.1796875 l 1
 140.950195312 345.830078125 l 1
 436.91015625 345.830078125 l 1
 483.874023438 612.1796875 l 1
 485.197265625 619.6796875 l 1
 492.697265625 619.6796875 l 1
 557.247070312 619.6796875 l 1
 564.747070312 619.6796875 l 1
EndSplineSet
EndChar

StartChar: I
Encoding: 27 73 8
Width: 144
VWidth: 0
Flags: W
HStem: 0 21G<-0.5 80.3721> 599.68 20G<107.443 188.316>
VStem: -0.5 188.816
LayerCount: 2
Fore
SplineSet
-0.5 0 m 1
 0.822265625 7.5 l 1
 107.443359375 612.1796875 l 1
 108.766601562 619.6796875 l 1
 116.266601562 619.6796875 l 1
 180.81640625 619.6796875 l 1
 188.31640625 619.6796875 l 1
 186.993164062 612.1796875 l 1
 80.3720703125 7.5 l 1
 79.0498046875 0 l 1
 71.5498046875 0 l 1
 7 0 l 1
 -0.5 0 l 1
EndSplineSet
EndChar

StartChar: J
Encoding: 28 74 9
Width: 286
VWidth: 0
Flags: W
HStem: 599.68 20G<218.443 299.316>
VStem: -21.3701 320.687
LayerCount: 2
Fore
SplineSet
-21.3701171875 -143.266601562 m 1
 -21.3623046875 -134.884765625 l 1
 -21.3408203125 -115.254882812 l 1
 -21.333984375 -108.932617188 l 1
 -14.89453125 -106.861328125 l 2
 78.1533203125 -77.505859375 109.663085938 -4.7470703125 119.450195312 50.76171875 c 2
 218.443359375 612.1796875 l 1
 219.766601562 619.6796875 l 1
 227.266601562 619.6796875 l 1
 291.81640625 619.6796875 l 1
 299.31640625 619.6796875 l 1
 297.993164062 612.1796875 l 1
 207.836914062 100.876953125 l 2
 201.729492188 66.2373046875 195.158203125 37.28515625 187.881835938 12.3623046875 c 0
 165.994140625 -62.5205078125 96.1220703125 -109.458984375 -12.7978515625 -140.755859375 c 2
 -21.3701171875 -143.266601562 l 1
EndSplineSet
EndChar

StartChar: K
Encoding: 29 75 10
Width: 482
VWidth: 0
Flags: W
HStem: 0 21G<0.5 81.2822 329.15 436.108> 599.68 20G<108.443 189.227 462.966 513.3>
LayerCount: 2
Fore
SplineSet
499.245117188 607.341796875 m 1
 198.369140625 343.206054688 l 1
 427.754882812 12.060546875 l 1
 436.108398438 0 l 1
 419.909179688 0 l 1
 334.359375 0 l 1
 330.9375 0 l 1
 329.150390625 2.5849609375 l 1
 130.962890625 289.251953125 l 1
 81.2822265625 7.5 l 1
 79.9599609375 0 l 1
 72.4599609375 0 l 1
 8 0 l 1
 0.5 0 l 1
 1.822265625 7.5 l 1
 108.443359375 612.1796875 l 1
 109.766601562 619.6796875 l 1
 117.266601562 619.6796875 l 1
 181.7265625 619.6796875 l 1
 189.2265625 619.6796875 l 1
 187.903320312 612.1796875 l 1
 137.426757812 325.908203125 l 1
 462.965820312 617.318359375 l 1
 465.604492188 619.6796875 l 1
 468.845703125 619.6796875 l 1
 495.956054688 619.6796875 l 1
 513.299804688 619.6796875 l 1
 499.245117188 607.341796875 l 1
EndSplineSet
EndChar

StartChar: L
Encoding: 30 76 11
Width: 448
VWidth: 0
Flags: W
HStem: 0 34.8799<86.1104 400.519> 599.68 20G<108.443 189.227>
LayerCount: 2
Fore
SplineSet
412.563476562 34.8798828125 m 1
 409.541992188 26.1298828125 l 1
 402.676757812 6.25 l 1
 400.518554688 0 l 1
 394.1796875 0 l 1
 8 0 l 1
 0.5 0 l 1
 1.822265625 7.5 l 1
 108.443359375 612.1796875 l 1
 109.766601562 619.6796875 l 1
 117.266601562 619.6796875 l 1
 181.7265625 619.6796875 l 1
 189.2265625 619.6796875 l 1
 187.903320312 612.1796875 l 1
 86.1103515625 34.8798828125 l 1
 403.689453125 34.8798828125 l 1
 412.563476562 34.8798828125 l 1
EndSplineSet
EndChar

StartChar: M
Encoding: 31 77 12
Width: 627
VWidth: 0
Flags: W
HStem: 0 21G<1.01953 37.1318 473.951 554.791> 599.68 20G<108.963 176.501 596.206 662.771>
LayerCount: 2
Fore
SplineSet
661.443359375 612.174804688 m 1
 638.596679688 483.0625 l 1
 554.791015625 7.322265625 l 1
 553.500976562 0 l 1
 546 0 l 1
 481.450195312 0 l 1
 473.951171875 0 l 1
 475.272460938 7.4990234375 l 1
 562.645507812 503.4375 l 1
 279.383789062 17.3271484375 l 1
 270.043945312 1.2998046875 l 1
 265.568359375 17.0087890625 l 1
 125.5 508.661132812 l 1
 37.1318359375 7.5 l 1
 35.8095703125 0 l 1
 28.3095703125 0 l 1
 8.51953125 0 l 1
 1.01953125 0 l 1
 2.341796875 7.5 l 1
 108.962890625 612.1796875 l 1
 110.286132812 619.6796875 l 1
 117.786132812 619.6796875 l 1
 170.456054688 619.6796875 l 1
 175.263671875 619.6796875 l 1
 176.500976562 615.310546875 l 1
 313.69140625 130.663085938 l 1
 596.206054688 615.006835938 l 1
 598.931640625 619.6796875 l 1
 603.9765625 619.6796875 l 1
 655.266601562 619.6796875 l 1
 662.771484375 619.6796875 l 1
 661.443359375 612.174804688 l 1
EndSplineSet
EndChar

StartChar: N
Encoding: 32 78 13
Width: 558
VWidth: 0
Flags: W
HStem: 0 21G<0.229492 36.3525> 599.68 20G<108.173 181.352 553.653 589.767>
LayerCount: 2
Fore
SplineSet
554.9765625 619.6796875 m 1
 562.4765625 619.6796875 l 1
 582.266601562 619.6796875 l 1
 589.766601562 619.6796875 l 1
 588.443359375 612.1796875 l 1
 480.290039062 -1.1904296875 l 1
 478.967773438 -8.6904296875 l 1
 471.467773438 -8.6904296875 l 1
 451.84765625 -8.6904296875 l 1
 448.079101562 -8.6904296875 l 1
 446.362304688 -5.666015625 l 1
 131.791015625 548.7578125 l 1
 36.3525390625 7.5 l 1
 35.0302734375 0 l 1
 27.5302734375 0 l 1
 7.7294921875 0 l 1
 0.2294921875 0 l 1
 1.5517578125 7.5 l 1
 108.172851562 612.1796875 l 1
 109.49609375 619.6796875 l 1
 116.99609375 619.6796875 l 1
 175.866210938 619.6796875 l 1
 179.63671875 619.6796875 l 1
 181.3515625 616.654296875 l 1
 465.942382812 114.741210938 l 1
 553.653320312 612.1796875 l 1
 554.9765625 619.6796875 l 1
EndSplineSet
EndChar

StartChar: O
Encoding: 33 79 14
Width: 555
VWidth: 0
Flags: W
HStem: -16.0596 36.0791<206.969 327.575> 598.15 35.3691<295.099 422.036>
LayerCount: 2
Fore
SplineSet
54.826171875 309.5703125 m 0
 76.4248046875 432.064453125 161.58984375 633.51953125 368.916992188 633.51953125 c 0
 548.565429688 633.51953125 600.375 488.94921875 568.736328125 309.5703125 c 0
 549.145507812 198.469726562 475.545898438 -16.0595703125 246.818359375 -16.0595703125 c 0
 58.8330078125 -16.0595703125 29.2373046875 164.448242188 54.826171875 309.5703125 c 0
360.469726562 598.150390625 m 0
 243.233398438 598.150390625 159.750976562 446.901367188 135.076171875 306.96484375 c 0
 108.284179688 155.01953125 152.977539062 20.01953125 271.370117188 20.01953125 c 0
 358.236328125 20.01953125 460.451171875 153.129882812 487.576171875 306.96484375 c 0
 515.561523438 465.676757812 473.93359375 598.150390625 360.469726562 598.150390625 c 0
EndSplineSet
EndChar

StartChar: P
Encoding: 34 80 15
Width: 455
VWidth: 0
Flags: W
HStem: 0 21G<0.5 81.2822> 213.86 34.6992<123.818 266.689> 584.39 35.29<183.034 329.498>
LayerCount: 2
Fore
SplineSet
250.034179688 584.389648438 m 2
 183.034179688 584.389648438 l 1
 123.818359375 248.559570312 l 1
 157.12890625 248.559570312 l 2
 330.586914062 248.559570312 388.688476562 343.438476562 401.5859375 416.586914062 c 0
 415.260742188 494.13671875 369.684570312 584.389648438 250.034179688 584.389648438 c 2
250.666992188 619.6796875 m 2
 337.15234375 619.6796875 437.931640625 614.391601562 477.536132812 502.908203125 c 0
 501.986328125 434.059570312 470.271484375 343.392578125 420.93359375 295.263671875 c 0
 341.264648438 217.568359375 274.397460938 213.860351562 142.189453125 213.860351562 c 2
 117.668945312 213.860351562 l 1
 81.2822265625 7.5 l 1
 79.9599609375 0 l 1
 72.4599609375 0 l 1
 8 0 l 1
 0.5 0 l 1
 1.822265625 7.5 l 1
 108.443359375 612.1796875 l 1
 109.766601562 619.6796875 l 1
 117.266601562 619.6796875 l 1
 250.666992188 619.6796875 l 2
EndSplineSet
EndChar

StartChar: Q
Encoding: 35 81 16
Width: 565
VWidth: 0
Flags: W
HStem: 598.17 35.3496<295.523 422.577>
LayerCount: 2
Fore
SplineSet
360.943359375 598.169921875 m 0
 243.57421875 598.169921875 160.11328125 447.255859375 135.418945312 307.208984375 c 0
 108.59765625 155.094726562 153.234375 19.259765625 271.715820312 19.259765625 c 0
 358.629882812 19.259765625 461.095703125 153.21484375 488.249023438 307.208984375 c 0
 516.2578125 466.05078125 474.532226562 598.169921875 360.943359375 598.169921875 c 0
569.483398438 309.84375 m 0
 551.659179688 208.7578125 489.091796875 22.14453125 308.501953125 -10.9248046875 c 1
 337.56640625 -75.361328125 384.380859375 -91.6064453125 469.409179688 -112.631835938 c 2
 476.276367188 -114.330078125 l 1
 473.440429688 -121.525390625 l 2
 471.259765625 -127.057617188 468.006835938 -135.237304688 468.005859375 -135.240234375 c 2
 465.66796875 -141.120117188 l 1
 459.646484375 -141.120117188 l 2
 347.459960938 -141.120117188 254.76171875 -117.529296875 227.81640625 -15.767578125 c 1
 56.2275390625 -4.0625 30.458984375 169.907226562 55.1240234375 309.788085938 c 0
 76.751953125 432.448242188 161.873046875 633.51953125 369.426757812 633.51953125 c 0
 549.141601562 633.51953125 601.13671875 489.357421875 569.483398438 309.84375 c 0
EndSplineSet
EndChar

StartChar: R
Encoding: 36 82 17
Width: 512
VWidth: 0
Flags: W
HStem: 0 21G<0.5 81.2822 371.687 469.979> 310.777 27.1924<139.563 216.208> 584.34 35.3301<183.006 339.655>
LayerCount: 2
Fore
SplineSet
183.005859375 584.33984375 m 1
 139.563476562 337.969726562 l 1
 172.943359375 337.969726562 l 2
 321.151367188 337.969726562 377.915039062 385.166992188 391.284179688 460.985351562 c 0
 404.58203125 536.403320312 354.083984375 584.33984375 250.03515625 584.33984375 c 2
 183.005859375 584.33984375 l 1
474.663085938 499.306640625 m 0
 484.231445312 390.241210938 370.1328125 332.053710938 309.315429688 317.5546875 c 1
 464.219726562 11.3828125 l 1
 469.978515625 0 l 1
 455.970703125 0 l 1
 377.310546875 0 l 1
 373.33984375 0 l 1
 371.686523438 3.2841796875 l 1
 216.208007812 312.1875 l 1
 189.263671875 310.896484375 151.059570312 310.796875 134.758789062 310.77734375 c 1
 81.2822265625 7.5 l 1
 79.9599609375 0 l 1
 72.4599609375 0 l 1
 8 0 l 1
 0.5 0 l 1
 1.822265625 7.5 l 1
 108.442382812 612.169921875 l 1
 109.764648438 619.669921875 l 1
 117.264648438 619.669921875 l 1
 250.665039062 619.669921875 l 2
 335.895507812 619.669921875 450.176757812 623.522460938 472.013671875 517.262695312 c 0
 473.2734375 511.153320312 474.1484375 505.166992188 474.663085938 499.306640625 c 0
EndSplineSet
EndChar

StartChar: S
Encoding: 37 83 18
Width: 483
VWidth: 0
Flags: W
HStem: -16.0703 39.8799<161.749 303.433> 598.63 34.8896<251.828 400.599>
VStem: 35.2998 31.79<132.281 231.569>
LayerCount: 2
Fore
SplineSet
289.038085938 356.381835938 m 0
 414.454101562 321.631835938 483.235351562 282.915039062 462.049804688 162.765625 c 0
 443.134765625 55.4951171875 330.03515625 -16.0703125 223.985351562 -16.0703125 c 0
 125.8359375 -16.0703125 64.453125 39.408203125 35.7138671875 111.0390625 c 2
 35.2998046875 112.071289062 l 1
 35.2587890625 113.237304688 l 2
 33.1396484375 173.298828125 40.02734375 224.075195312 40.0595703125 224.317382812 c 2
 41.0361328125 231.569335938 l 1
 48.369140625 232.109375 l 1
 48.369140625 232.109375 56.55078125 232.708984375 61.5439453125 233.1328125 c 2
 68.99609375 233.764648438 l 1
 68.466796875 226.435546875 l 2
 67.9931640625 219.903320312 66.8310546875 203.264648438 67.08984375 194.931640625 c 0
 70.3994140625 100.655273438 154.505859375 23.8095703125 229.118164062 23.8095703125 c 0
 286.844726562 23.8095703125 382.000976562 69.2509765625 396.08984375 149.15625 c 0
 408.747070312 220.93359375 361.596679688 253.40234375 258.005859375 280.868164062 c 0
 124.690429688 316.3046875 90.3388671875 383.149414062 107.71484375 481.6953125 c 0
 122.561523438 565.895507812 221.100585938 633.51953125 333.526367188 633.51953125 c 0
 414.528320312 633.51953125 445.022460938 614.96484375 483.787109375 575.845703125 c 2
 484.9375 574.685546875 l 1
 485.333984375 573.038085938 l 2
 494.853515625 533.522460938 480.5625 460.166992188 480.508789062 459.87890625 c 2
 479.28125 453.318359375 l 1
 472.627929688 452.516601562 l 2
 472.624023438 452.515625 464.092773438 451.485351562 458.791015625 450.872070312 c 2
 450.889648438 449.958007812 l 1
 451.643554688 457.727539062 l 2
 452.036132812 461.778320312 452.708007812 471.439453125 452.872070312 479.981445312 c 0
 455.084960938 583.393554688 368.82421875 598.629882812 331.864257812 598.629882812 c 0
 263.63671875 598.629882812 190.755859375 565.2890625 178.055664062 493.26171875 c 0
 167.450195312 433.1171875 193.533203125 382.796875 289.038085938 356.381835938 c 0
EndSplineSet
EndChar

StartChar: T
Encoding: 38 84 19
Width: 565
VWidth: 0
Flags: W
HStem: 0 21G<219.399 300.192> 584.89 34.79<108.767 322.531 402.002 621.812>
LayerCount: 2
Fore
SplineSet
627.946289062 619.6796875 m 1
 626.623046875 612.1796875 l 1
 623.133789062 592.389648438 l 1
 621.811523438 584.889648438 l 1
 614.311523438 584.889648438 l 1
 402.001953125 584.889648438 l 1
 300.192382812 7.5 l 1
 298.870117188 0 l 1
 291.370117188 0 l 1
 226.899414062 0 l 1
 219.399414062 0 l 1
 220.721679688 7.5 l 1
 322.53125 584.889648438 l 1
 110.131835938 584.889648438 l 1
 102.631835938 584.889648438 l 1
 103.954101562 592.389648438 l 1
 107.443359375 612.1796875 l 1
 108.766601562 619.6796875 l 1
 116.266601562 619.6796875 l 1
 620.446289062 619.6796875 l 1
 627.946289062 619.6796875 l 1
EndSplineSet
EndChar

StartChar: U
Encoding: 39 85 20
Width: 481
VWidth: 0
Flags: W
HStem: -16.0703 32.3799<154.554 308.009> 599.68 19.9902G<108.442 189.225 487.634 523.757>
LayerCount: 2
Fore
SplineSet
488.95703125 619.6796875 m 1
 496.466796875 619.6796875 l 1
 516.256835938 619.6796875 l 1
 523.756835938 619.6796875 l 1
 522.43359375 612.1796875 l 1
 445.436523438 175.505859375 l 2
 423.461914062 50.8818359375 350.65234375 -16.0703125 209.135742188 -16.0703125 c 0
 86.9453125 -16.0703125 6.267578125 33.21875 30.970703125 173.319335938 c 2
 108.442382812 612.171875 l 1
 109.766601562 619.669921875 l 1
 117.264648438 619.669921875 l 1
 181.724609375 619.669921875 l 1
 189.224609375 619.669921875 l 1
 187.90234375 612.169921875 l 1
 110.217773438 171.600585938 l 2
 89.103515625 51.8583984375 152.169921875 16.3095703125 225.946289062 16.3095703125 c 0
 294.495117188 16.3095703125 387.145507812 42.2822265625 410.732421875 176.048828125 c 2
 487.633789062 612.1796875 l 1
 488.95703125 619.6796875 l 1
EndSplineSet
EndChar

StartChar: V
Encoding: 40 86 21
Width: 511
VWidth: 0
Flags: W
HStem: 599.68 20G<109.652 195.487 539.045 578.333>
LayerCount: 2
Fore
SplineSet
541.55078125 619.6796875 m 1
 547.2265625 619.6796875 l 1
 568.407226562 619.6796875 l 1
 578.333007812 619.6796875 l 1
 573.977539062 610.353515625 l 1
 284.002929688 -10.6181640625 l 1
 281.493164062 -16.0703125 l 1
 275.826171875 -16.0703125 l 1
 233.396484375 -16.0703125 l 1
 228.096679688 -16.0703125 l 1
 227.208007812 -11.0751953125 l 1
 111.473632812 609.907226562 l 1
 109.65234375 619.6796875 l 1
 120.266601562 619.6796875 l 1
 189.296875 619.6796875 l 1
 194.604492188 619.6796875 l 1
 195.487304688 614.673828125 l 1
 290.956054688 73.2685546875 l 1
 539.044921875 614.216796875 l 1
 541.55078125 619.6796875 l 1
EndSplineSet
EndChar

StartChar: W
Encoding: 41 87 22
Width: 758
VWidth: 0
Flags: W
HStem: 599.68 20G<109.652 195.567 347.939 437.604 536.721 576.57 778.216 817.402>
LayerCount: 2
Fore
SplineSet
780.721679688 619.6796875 m 1
 786.396484375 619.6796875 l 1
 807.4765625 619.6796875 l 1
 817.40234375 619.6796875 l 1
 813.046875 610.353515625 l 1
 523.083007812 -10.6181640625 l 1
 520.573242188 -16.0703125 l 1
 514.90625 -16.0703125 l 1
 472.56640625 -16.0703125 l 1
 467.225585938 -16.0703125 l 1
 466.369140625 -11.0234375 l 1
 416.655273438 281.733398438 l 1
 284.038085938 -10.486328125 l 1
 281.544921875 -15.98046875 l 1
 275.842773438 -15.98046875 l 1
 233.413085938 -15.98046875 l 1
 228.11328125 -15.98046875 l 1
 227.223632812 -10.9853515625 l 1
 111.473632812 609.907226562 l 1
 109.65234375 619.6796875 l 1
 120.266601562 619.6796875 l 1
 189.376953125 619.6796875 l 1
 194.685546875 619.6796875 l 1
 195.567382812 614.672851562 l 1
 290.90234375 73.525390625 l 1
 403.729492188 323.4609375 l 1
 349.8359375 609.610351562 l 1
 347.939453125 619.6796875 l 1
 358.657226562 619.6796875 l 1
 431.376953125 619.6796875 l 1
 436.873046875 619.6796875 l 1
 437.603515625 614.438476562 l 1
 461.922851562 440.086914062 l 1
 536.720703125 614.024414062 l 1
 539.15234375 619.6796875 l 1
 544.987304688 619.6796875 l 1
 566.846679688 619.6796875 l 1
 576.5703125 619.6796875 l 1
 572.442382812 610.275390625 l 1
 471.872070312 381.124023438 l 1
 529.8515625 72.8583984375 l 1
 778.215820312 614.21875 l 1
 780.721679688 619.6796875 l 1
EndSplineSet
EndChar

StartChar: X
Encoding: 42 88 23
Width: 506
VWidth: 0
Flags: W
HStem: 0 21G<24.4238 68.6104 379.262 473.502> 599.68 19.8301G<108.983 203.225 499.634 543.724>
LayerCount: 2
Fore
SplineSet
502.4609375 619.6796875 m 1
 506.796875 619.6796875 l 1
 530.626953125 619.6796875 l 1
 543.723632812 619.6796875 l 1
 535.150390625 608.651367188 l 1
 325.063476562 338.36328125 l 1
 468.635742188 11.0927734375 l 1
 473.501953125 0 l 1
 460.25 0 l 1
 385.049804688 0 l 1
 380.805664062 0 l 1
 379.26171875 3.6376953125 l 1
 266.963867188 268.276367188 l 1
 68.6103515625 3.7685546875 l 1
 65.78515625 0 l 1
 61.4404296875 0 l 1
 37.5205078125 0 l 1
 24.423828125 0 l 1
 32.99609375 11.0283203125 l 1
 252.2265625 293.079101562 l 1
 113.850585938 608.416992188 l 1
 108.983398438 619.509765625 l 1
 122.236328125 619.509765625 l 1
 197.436523438 619.509765625 l 1
 201.680664062 619.509765625 l 1
 203.224609375 615.872070312 l 1
 310.125976562 363.943359375 l 1
 499.633789062 615.921875 l 1
 502.4609375 619.6796875 l 1
EndSplineSet
EndChar

StartChar: Y
Encoding: 43 89 24
Width: 530
VWidth: 0
Flags: W
HStem: 0 21G<212 292.872> 599.68 20G<108.486 201.066 572.544 615.423>
LayerCount: 2
Fore
SplineSet
575.369140625 619.6796875 m 1
 579.736328125 619.6796875 l 1
 602.545898438 619.6796875 l 1
 615.422851562 619.6796875 l 1
 607.141601562 608.747070312 l 1
 335.697265625 250.370117188 l 1
 292.872070312 7.5 l 1
 291.549804688 0 l 1
 284.049804688 0 l 1
 219.5 0 l 1
 212 0 l 1
 213.322265625 7.5 l 1
 255.70703125 247.876953125 l 1
 112.797851562 608.7890625 l 1
 108.486328125 619.6796875 l 1
 121.266601562 619.6796875 l 1
 195.196289062 619.6796875 l 1
 199.59765625 619.6796875 l 1
 201.06640625 615.836914062 l 1
 327.124023438 285.958007812 l 1
 572.543945312 615.881835938 l 1
 575.369140625 619.6796875 l 1
EndSplineSet
EndChar

StartChar: Z
Encoding: 44 90 25
Width: 485
VWidth: 0
Flags: W
HStem: 0 34.7998<87.3975 432.84> 584.89 34.79<109.767 423.95>
LayerCount: 2
Fore
SplineSet
438.975585938 34.7998046875 m 1
 437.653320312 27.2998046875 l 1
 434.162109375 7.5 l 1
 432.83984375 0 l 1
 425.33984375 0 l 1
 -7.3203125 0 l 1
 -14.8203125 0 l 1
 -13.498046875 7.5 l 1
 -10.1259765625 26.623046875 l 1
 -9.775390625 28.61328125 l 1
 -8.4375 30.3291015625 l 1
 423.950195312 584.889648438 l 1
 111.131835938 584.889648438 l 1
 103.631835938 584.889648438 l 1
 104.954101562 592.389648438 l 1
 108.443359375 612.1796875 l 1
 109.766601562 619.6796875 l 1
 117.266601562 619.6796875 l 1
 529.696289062 619.6796875 l 1
 542.797851562 619.6796875 l 1
 534.221679688 608.6640625 l 1
 87.3974609375 34.7998046875 l 1
 431.475585938 34.7998046875 l 1
 438.975585938 34.7998046875 l 1
EndSplineSet
EndChar

StartChar: comma
Encoding: 2 44 26
Width: 173
VWidth: 0
Flags: W
HStem: -76.5371 168.587
VStem: 4.87793 124.005
LayerCount: 2
Fore
SplineSet
77.2802734375 92.0498046875 m 0
 111.263671875 92.0498046875 134.373046875 66.7724609375 128.8828125 35.634765625 c 0
 125.655273438 17.328125 123.108398438 6.1376953125 112.895507812 -12.5576171875 c 0
 96.8759765625 -41.7978515625 63.1552734375 -56.1123046875 27.8505859375 -72.7705078125 c 2
 20.4775390625 -76.537109375 l 1
 18.0830078125 -69.734375 l 2
 16.2626953125 -66.4658203125 12.8955078125 -60.5400390625 10.7177734375 -56.7666015625 c 2
 7.8515625 -51.7978515625 l 1
 15.34375 -49.3271484375 l 2
 22.0546875 -47.11328125 32.6943359375 -43.564453125 34.3212890625 -43.015625 c 0
 40.7607421875 -40.744140625 52.08203125 -35.3154296875 59.0693359375 -30.958984375 c 1
 55.857421875 -31.0869140625 57.044921875 -31.0498046875 55.5751953125 -31.0498046875 c 0
 21.603515625 -31.0498046875 -1.1142578125 -3.4833984375 4.8779296875 30.5 c 0
 10.8701171875 64.482421875 43.2978515625 92.0498046875 77.2802734375 92.0498046875 c 0
EndSplineSet
EndChar

StartChar: hyphen
Encoding: 3 45 27
Width: 282
VWidth: 0
Flags: W
HStem: 168.729 79.5703<42.2822 259.521>
VStem: 28.251 245.301
LayerCount: 2
Fore
SplineSet
42.2822265625 248.298828125 m 1
 49.7822265625 248.298828125 l 1
 266.051757812 248.298828125 l 1
 273.551757812 248.298828125 l 1
 272.228515625 240.798828125 l 1
 260.84375 176.228515625 l 1
 259.520507812 168.728515625 l 1
 252.020507812 168.728515625 l 1
 35.7509765625 168.728515625 l 1
 28.2509765625 168.728515625 l 1
 29.57421875 176.228515625 l 1
 40.958984375 240.798828125 l 1
 42.2822265625 248.298828125 l 1
EndSplineSet
EndChar

StartChar: period
Encoding: 4 46 28
Width: 169
VWidth: 0
Flags: W
HStem: -31.0596 123.119<26.9921 105.883>
VStem: 4.87793 123.119<-8.65867 69.6542>
LayerCount: 2
Fore
SplineSet
4.8779296875 30.5 m 0
 10.873046875 64.5009765625 43.291015625 92.0595703125 77.2919921875 92.0595703125 c 0
 111.293945312 92.0595703125 133.990234375 64.490234375 127.997070312 30.5 c 0
 122.001953125 -3.5009765625 89.583984375 -31.0595703125 55.5830078125 -31.0595703125 c 0
 21.58203125 -31.0595703125 -1.1171875 -3.5009765625 4.8779296875 30.5 c 0
EndSplineSet
EndChar

StartChar: slash
Encoding: 5 47 29
Width: 239
VWidth: 0
Flags: W
VStem: -2.35156 331.315
LayerCount: 2
Fore
SplineSet
-2.3515625 -8.623046875 m 1
 0.9375 -1.5576171875 l 1
 294.015625 628.05859375 l 1
 297.45703125 635.560546875 l 1
 304.447265625 633.153320312 l 2
 311.434570312 630.747070312 322.546875 626.807617188 322.553710938 626.805664062 c 2
 328.963867188 624.58984375 l 1
 325.818359375 617.852539062 l 1
 32.3447265625 -10.6083984375 l 1
 29.0673828125 -17.7275390625 l 1
 22.26171875 -15.80078125 l 2
 15.275390625 -13.82421875 4.5361328125 -10.654296875 4.52734375 -10.6513671875 c 2
 -2.3515625 -8.623046875 l 1
EndSplineSet
EndChar

StartChar: zero
Encoding: 6 48 30
Width: 517
VWidth: 0
Flags: W
HStem: -16.0801 34.8604<198.821 300.658> 598.66 34.8496<275.771 399.122>
LayerCount: 2
Fore
SplineSet
356.71484375 633.509765625 m 0
 474.930664062 633.509765625 560.403320312 557.110351562 518.3515625 318.62109375 c 0
 485.682617188 133.345703125 405.12890625 -16.0703125 244.344726562 -16.080078125 c 0
 82.94140625 -16.080078125 20.64453125 119.918945312 54.8955078125 314.1640625 c 0
 96.1015625 547.853515625 221.225585938 633.509765625 356.71484375 633.509765625 c 0
344.19921875 598.66015625 m 0
 229.083007812 598.66015625 162.143554688 471.07421875 135.794921875 321.646484375 c 0
 103.849609375 140.4765625 167.181640625 18.7802734375 243.372070312 18.7802734375 c 0
 319.012695312 18.7802734375 400.091796875 99.369140625 438.749023438 318.604492188 c 0
 464.73828125 465.99609375 452.8359375 598.66015625 344.19921875 598.66015625 c 0
EndSplineSet
EndChar

StartChar: one
Encoding: 7 49 31
Width: 152
VWidth: 0
Flags: W
HStem: 0 21G<-0.5 80.3721> 599.68 20G<107.443 188.316>
VStem: -0.5 188.816
LayerCount: 2
Fore
SplineSet
-0.5 0 m 1
 0.822265625 7.5 l 1
 107.443359375 612.1796875 l 1
 108.766601562 619.6796875 l 1
 116.266601562 619.6796875 l 1
 180.81640625 619.6796875 l 1
 188.31640625 619.6796875 l 1
 186.993164062 612.1796875 l 1
 80.3720703125 7.5 l 1
 79.0498046875 0 l 1
 71.5498046875 0 l 1
 7 0 l 1
 -0.5 0 l 1
EndSplineSet
EndChar

StartChar: two
Encoding: 8 50 32
Width: 473
VWidth: 0
Flags: W
HStem: 0 77.8174<86.792 408.541> 599.16 34.3496<230.523 383.922>
LayerCount: 2
Fore
SplineSet
93.20703125 483.892578125 m 1
 95.1357421875 491.171875 l 2
 115.305664062 567.29296875 211.423828125 633.51953125 326.525390625 633.509765625 c 0
 430.926757812 633.509765625 529.80859375 597.799804688 509.854492188 484.63671875 c 0
 494.400390625 396.987304688 416.365234375 337.489257812 372.397460938 303.346679688 c 2
 86.7919921875 77.8173828125 l 1
 432.66796875 77.66015625 l 1
 442.29296875 77.6552734375 l 1
 438.328125 68.5400390625 l 1
 410.969726562 5.662109375 l 1
 408.541015625 0 l 1
 402.700195312 0 l 1
 7.669921875 0 l 1
 0.169921875 0 l 1
 1.4921875 7.5 l 1
 9.78125 54.5087890625 l 1
 10.33984375 57.6748046875 l 1
 13.0888671875 59.841796875 l 1
 276.633789062 267.565429688 l 2
 312.7421875 296.599609375 357.09765625 328.662109375 378.580078125 356.270507812 c 0
 401.12890625 385.276367188 413.302734375 411.123046875 425.578125 480.7421875 c 0
 442.206054688 575.043945312 373.375976562 599.16015625 306.018554688 599.16015625 c 0
 237.859375 599.16015625 168.783203125 568.048828125 148.342773438 485.467773438 c 2
 146.409179688 477.655273438 l 1
 138.786132812 478.548828125 l 1
 100.3203125 483.05859375 l 1
 93.20703125 483.892578125 l 1
EndSplineSet
EndChar

StartChar: three
Encoding: 9 51 33
Width: 430
VWidth: 0
Flags: W
HStem: -16.0703 34.8398<99.9741 241.838> 317.45 35.0693<215.619 284.236> 598.72 34.79<215.19 350.187>
LayerCount: 2
Fore
SplineSet
459.95703125 475.743164062 m 0
 448.681640625 411.798828125 389.478515625 353.673828125 330.892578125 332.958007812 c 1
 384.422851562 314.338867188 433.021484375 261.908203125 419.057617188 182.71875 c 0
 388.178710938 7.5947265625 223.276367188 -16.0703125 173.74609375 -16.0703125 c 0
 169.123046875 -16.0703125 164.594726562 -15.9736328125 160.159179688 -15.7822265625 c 0
 57.4990234375 -11.3671875 3.4443359375 44.205078125 17.87890625 109.866210938 c 2
 19.6875 118.086914062 l 1
 27.6416015625 116.970703125 l 1
 74.62890625 110.380859375 l 1
 81.35546875 109.4375 l 1
 79.7080078125 102.494140625 l 2
 62.3974609375 29.515625 125.756835938 18.7900390625 171.458984375 18.76953125 c 0
 280.776367188 18.76953125 326.892578125 111.400390625 338.616210938 177.884765625 c 0
 358.350585938 289.807617188 276.9453125 317.450195312 216.934570312 317.450195312 c 2
 209.434570312 317.450195312 l 1
 210.7578125 324.950195312 l 1
 214.295898438 345.01953125 l 1
 215.619140625 352.51953125 l 1
 223.119140625 352.51953125 l 2
 290.958007812 352.51953125 371.223632812 423.951171875 379.521484375 471.010742188 c 0
 398.196289062 576.920898438 341.364257812 598.719726562 284.049804688 598.719726562 c 0
 224.408203125 598.719726562 185.662109375 568.974609375 172.357421875 535.953125 c 2
 169.380859375 528.564453125 l 1
 162.318359375 530.3125 l 1
 122.438476562 540.182617188 l 1
 114.373046875 542.178710938 l 1
 118.9609375 550.227539062 l 2
 153.734375 611.231445312 231.00390625 633.509765625 289.28515625 633.509765625 c 0
 418.661132812 633.509765625 476.994140625 572.366210938 459.95703125 475.743164062 c 0
EndSplineSet
EndChar

StartChar: four
Encoding: 10 52 34
Width: 468
VWidth: 0
Flags: W
HStem: 0 21G<280.56 361.432> 178.49 34.8594<86.7607 312.032 397.732 469.992> 599.68 20G<441.467 469.376>
LayerCount: 2
Fore
SplineSet
86.7607421875 213.349609375 m 1
 318.178710938 213.349609375 l 1
 369.306640625 503.309570312 l 1
 86.7607421875 213.349609375 l 1
468.052734375 612.1796875 m 1
 397.732421875 213.370117188 l 1
 468.642578125 213.370117188 l 1
 476.142578125 213.370117188 l 1
 474.8203125 205.870117188 l 1
 471.314453125 185.990234375 l 1
 469.9921875 178.490234375 l 1
 462.4921875 178.490234375 l 1
 391.58203125 178.490234375 l 1
 361.431640625 7.5 l 1
 360.109375 0 l 1
 352.609375 0 l 1
 288.059570312 0 l 1
 280.559570312 0 l 1
 281.881835938 7.5 l 1
 312.032226562 178.490234375 l 1
 39.47265625 178.490234375 l 1
 31.97265625 178.490234375 l 1
 33.2724609375 185.864257812 l 1
 36.673828125 205.154296875 l 1
 37.1376953125 207.783203125 l 1
 39.3388671875 210.010742188 l 1
 441.466796875 616.859375 l 1
 444.216796875 619.6796875 l 1
 447.826171875 619.6796875 l 1
 461.875976562 619.6796875 l 1
 469.375976562 619.6796875 l 1
 468.052734375 612.1796875 l 1
EndSplineSet
EndChar

StartChar: five
Encoding: 11 53 35
Width: 465
VWidth: 0
Flags: W
HStem: -16.0703 34.79<105.543 263.386> 380.72 35.0498<128.133 311.974> 540.04 79.6396<151.383 446.866>
LayerCount: 2
Fore
SplineSet
82.52734375 104.677734375 m 1
 81.7353515625 98.31640625 l 2
 74.3125 38.7705078125 115.870117188 18.73046875 177.98046875 18.7197265625 c 0
 301.46875 18.7197265625 350.02734375 93.39453125 372.3515625 220 c 0
 399.106445312 371.734375 271.92578125 380.719726562 218.740234375 380.719726562 c 0
 169.016601562 380.719726562 138.88671875 374.071289062 94.4912109375 353.55078125 c 2
 82.6552734375 348.079101562 l 1
 84.80078125 360.25 l 1
 129.22265625 612.1796875 l 1
 130.545898438 619.6796875 l 1
 138.045898438 619.6796875 l 1
 471.236328125 619.6796875 l 1
 480.844726562 619.6796875 l 1
 476.868164062 610.358398438 l 1
 449.2890625 545.71875 l 1
 446.866210938 540.040039062 l 1
 441.012695312 540.040039062 l 1
 151.3828125 540.040039062 l 1
 127.100585938 402.328125 l 1
 163.022460938 413.642578125 195.564453125 415.76953125 234.901367188 415.76953125 c 0
 301.377929688 415.76953125 488.153320312 394.803710938 456.329101562 214.319335938 c 0
 425.899414062 41.7421875 275.6875 -16.0703125 171.845703125 -16.0703125 c 0
 73.7236328125 -16.0703125 12.6064453125 34.3134765625 18.6416015625 102.721679688 c 2
 19.4462890625 111.848632812 l 1
 28.3740234375 110.833984375 l 1
 76.322265625 105.383789062 l 1
 82.52734375 104.677734375 l 1
EndSplineSet
EndChar

StartChar: six
Encoding: 12 54 36
Width: 443
VWidth: 0
Flags: W
HStem: -16.0703 35.3203<162.691 277.507> 370.4 34.4795<220.463 330.549>
LayerCount: 2
Fore
SplineSet
122.525390625 194.83984375 m 0
 104.155273438 90.6572265625 135.470703125 19.25 222.1640625 19.25 c 0
 299.326171875 19.25 348.959960938 107.754882812 364.056640625 193.37109375 c 0
 378.0703125 272.844726562 367.502929688 370.400390625 279.130859375 370.400390625 c 0
 194.052734375 370.400390625 137.114257812 277.576171875 122.525390625 194.83984375 c 0
145.180664062 345.15234375 m 1
 174.39453125 372.78515625 224.345703125 404.879882812 288.041015625 404.879882812 c 0
 424.971679688 404.879882812 461.956054688 297.7734375 445.6953125 205.502929688 c 0
 416.2265625 38.373046875 293.34375 -16.0703125 208.755859375 -16.0703125 c 0
 111.692382812 -16.0703125 8.2099609375 43.7265625 46.0703125 258.442382812 c 0
 85.0361328125 479.430664062 305.44140625 598.34765625 446.298828125 628.524414062 c 0
 452.651367188 629.909179688 462.560546875 632.049804688 468.9765625 633.357421875 c 2
 476.291992188 634.84765625 l 1
 476.829101562 627.859375 l 2
 477.360351562 621.639648438 477.958007812 614.834960938 477.958007812 614.834960938 c 1
 478.545898438 608.139648438 l 1
 471.361328125 606.104492188 l 2
 355.69921875 573.1015625 213.306640625 519.653320312 145.180664062 345.15234375 c 1
EndSplineSet
EndChar

StartChar: seven
Encoding: 13 55 37
Width: 416
VWidth: 0
Flags: W
HStem: 540.02 79.6504<123.346 403.639>
LayerCount: 2
Fore
SplineSet
488.202148438 619.669921875 m 1
 482.157226562 609.563476562 l 1
 110.780273438 -11.4267578125 l 1
 106.564453125 -18.5927734375 l 1
 100.060546875 -15.4072265625 l 1
 100.060546875 -15.4072265625 87.904296875 -9.62109375 83.396484375 -7.580078125 c 2
 77.119140625 -4.7373046875 l 1
 81.1025390625 1.908203125 l 1
 403.638671875 540.01953125 l 1
 101.219726562 540.01953125 l 1
 91.9052734375 540.01953125 l 1
 95.4970703125 549.120117188 l 1
 121.017578125 613.770507812 l 1
 123.345703125 619.669921875 l 1
 129.384765625 619.669921875 l 1
 477.9375 619.669921875 l 1
 488.202148438 619.669921875 l 1
EndSplineSet
EndChar

StartChar: eight
Encoding: 14 56 38
Width: 421
VWidth: 0
Flags: W
HStem: -16.0703 34.8008<139.064 245.546> 598.81 34.71<228.295 335.225>
LayerCount: 2
Fore
SplineSet
434.322265625 501.694335938 m 0
 423.438476562 439.966796875 383.71484375 407.626953125 278.373046875 336.559570312 c 1
 362.768554688 261.543945312 400.071289062 218.124023438 386.401367188 140.650390625 c 0
 372.13671875 59.75390625 287.733398438 -16.0703125 174.846679688 -16.0703125 c 0
 57.361328125 -16.0703125 11.0341796875 63.3125 23.57421875 134.434570312 c 0
 37.4794921875 213.294921875 90.7783203125 256.501953125 177.125976562 315.040039062 c 1
 88.3798828125 397.171875 82.138671875 428.96875 91.669921875 483.025390625 c 0
 104.640625 556.584960938 173.486328125 633.51953125 289.827148438 633.51953125 c 0
 392.06640625 633.51953125 446.514648438 570.838867188 434.322265625 501.694335938 c 0
284.556640625 598.809570312 m 0
 223.463867188 598.809570312 182.545898438 547.311523438 175.421875 506.91015625 c 0
 167.133789062 459.908203125 172.450195312 437.27734375 253.697265625 352.984375 c 1
 332.54296875 414.583984375 355.318359375 444.276367188 364.0703125 493.91015625 c 0
 374.032226562 550.407226562 342.897460938 598.809570312 284.556640625 598.809570312 c 0
104.682617188 142.8203125 m 0
 89.5869140625 57.205078125 146.1875 18.73046875 188.04296875 18.73046875 c 0
 244.862304688 18.73046875 292.963867188 62.291015625 302.018554688 113.639648438 c 0
 313.39453125 178.155273438 292.495117188 205.365234375 201.83203125 299.3671875 c 1
 149.928710938 258.404296875 120.583984375 233.000976562 104.682617188 142.8203125 c 0
EndSplineSet
EndChar

StartChar: nine
Encoding: 15 57 39
Width: 454
VWidth: 0
Flags: W
HStem: -15.626 30.3086<43.0469 61.4805> 215.9 34.2695<186.728 296.052> 598.24 35.2793<239.338 353.183>
LayerCount: 2
Fore
SplineSet
153.543945312 425.6484375 m 0
 139.646484375 346.836914062 150.1484375 250.169921875 237.721679688 250.169921875 c 0
 322.049804688 250.169921875 378.491210938 342.154296875 392.956054688 424.190429688 c 0
 411.168945312 527.481445312 380.111328125 598.240234375 294.186523438 598.240234375 c 0
 217.724609375 598.240234375 168.516601562 510.5625 153.543945312 425.6484375 c 0
72.42578125 413.580078125 m 0
 101.666992188 579.416015625 223.672851562 633.51953125 307.5078125 633.51953125 c 0
 403.66015625 633.51953125 507.60546875 580.71484375 468.87109375 361.094726562 c 0
 432.497070312 154.80859375 245.8515625 51.1572265625 148.466796875 16.7431640625 c 0
 110.767578125 3.439453125 51.8974609375 -15.6142578125 51.861328125 -15.6259765625 c 2
 43.8759765625 -18.267578125 l 1
 43.046875 -10.6025390625 l 2
 43.0458984375 -10.595703125 41.650390625 1.265625 40.9228515625 7.822265625 c 2
 40.1640625 14.6826171875 l 1
 47.5712890625 16.7216796875 l 2
 52.662109375 18.123046875 58.65234375 19.814453125 61.48046875 20.6005859375 c 2
 61.48046875 20.6005859375 178.180664062 51.7177734375 259.26953125 117.181640625 c 0
 296.323242188 147.344726562 334.642578125 194.2109375 367.98828125 272.671875 c 1
 338.072265625 245.427734375 290.061523438 215.900390625 228.83984375 215.900390625 c 0
 93.08203125 215.900390625 56.3017578125 322.140625 72.42578125 413.580078125 c 0
EndSplineSet
EndChar

StartChar: colon
Encoding: 16 58 40
Width: 193
VWidth: 0
Flags: W
HStem: -16.0596 123.119<30.6375 109.527> 312.82 123.12<88.6279 167.518>
VStem: 8.52246 181.11
LayerCount: 2
Fore
SplineSet
189.6328125 374.379882812 m 0
 183.63671875 340.37890625 151.21875 312.8203125 117.217773438 312.8203125 c 0
 83.2158203125 312.8203125 60.51953125 340.389648438 66.513671875 374.379882812 c 0
 72.5087890625 408.380859375 104.926757812 435.940429688 138.927734375 435.940429688 c 0
 172.928710938 435.940429688 195.627929688 408.380859375 189.6328125 374.379882812 c 0
8.5224609375 45.5 m 0
 14.5185546875 79.5009765625 46.9365234375 107.059570312 80.9375 107.059570312 c 0
 114.939453125 107.059570312 137.635742188 79.490234375 131.641601562 45.5 c 0
 125.646484375 11.4990234375 93.228515625 -16.0595703125 59.2275390625 -16.0595703125 c 0
 25.2265625 -16.0595703125 2.52734375 11.4990234375 8.5224609375 45.5 c 0
EndSplineSet
EndChar

StartChar: semicolon
Encoding: 17 59 41
Width: 192
VWidth: 0
Flags: W
HStem: 312.86 123.08<87.6229 166.491>
VStem: 8.46484 180.132
LayerCount: 2
Fore
SplineSet
78.603515625 99.5498046875 m 0
 112.586914062 99.5498046875 135.493164062 73.1220703125 129.752929688 40.5673828125 c 0
 126.377929688 21.427734375 123.7421875 9.728515625 113.377929688 -9.8173828125 c 0
 97.1240234375 -40.388671875 63.2890625 -55.3544921875 27.8505859375 -72.7705078125 c 2
 20.4775390625 -76.537109375 l 1
 18.0830078125 -69.734375 l 2
 16.3740234375 -65.83203125 13.2099609375 -58.7568359375 11.1611328125 -54.251953125 c 2
 8.46484375 -48.3203125 l 1
 16.041015625 -45.37109375 l 2
 22.828125 -42.728515625 33.5888671875 -38.4912109375 35.234375 -37.8359375 c 0
 41.751953125 -35.126953125 53.2568359375 -28.6533203125 60.3916015625 -23.458984375 c 1
 57.1796875 -23.5869140625 58.3671875 -23.5498046875 56.8974609375 -23.5498046875 c 0
 22.92578125 -23.5498046875 0.2080078125 4.0166015625 6.2001953125 38 c 0
 12.1923828125 71.982421875 44.62109375 99.5498046875 78.603515625 99.5498046875 c 0
188.596679688 374.400390625 m 0
 182.60546875 340.418945312 150.197265625 312.860351562 116.206054688 312.860351562 c 0
 82.224609375 312.860351562 59.5244140625 340.41796875 65.5166015625 374.400390625 c 0
 71.5087890625 408.380859375 103.916015625 435.940429688 137.908203125 435.940429688 c 0
 171.888671875 435.940429688 194.590820312 408.391601562 188.596679688 374.400390625 c 0
EndSplineSet
EndChar

StartChar: question
Encoding: 18 63 42
Width: 414
VWidth: 0
Flags: W
HStem: -16.0703 85.0898<136.96 203.308> 589.77 43.7402<203.497 349.351>
VStem: 127.589 85.0898<-6.35373 59.3039>
LayerCount: 2
Fore
SplineSet
285.82421875 633.509765625 m 0
 401.8359375 633.51953125 461.044921875 567.6640625 447.177734375 489.01953125 c 0
 432.142578125 403.750976562 385.809570312 368.756835938 317.698242188 303.9765625 c 0
 253.3359375 242.666015625 216.006835938 188.216796875 207.002929688 137.150390625 c 2
 205.680664062 129.650390625 l 1
 198.180664062 129.650390625 l 1
 178.391601562 129.650390625 l 1
 170.891601562 129.650390625 l 1
 172.213867188 137.150390625 l 2
 181.727539062 191.107421875 213.232421875 249.389648438 243.629882812 285.763671875 c 0
 310.258789062 365.385742188 327.970703125 376.3671875 349.5234375 426.497070312 c 0
 368.139648438 469.758789062 375.940429688 507.970703125 368.383789062 538.120117188 c 0
 360.150390625 570.62890625 329.697265625 589.76953125 278.282226562 589.76953125 c 0
 226.119140625 589.76953125 165.9453125 562.7890625 109.138671875 466.194335938 c 2
 105.244140625 459.57421875 l 1
 98.9306640625 461.989257812 l 1
 98.9306640625 461.989257812 91.517578125 464.827148438 86.294921875 466.80078125 c 2
 79.7236328125 469.284179688 l 1
 83.38671875 476.314453125 l 2
 86.173828125 481.663085938 90.943359375 490.520507812 95.1123046875 497.901367188 c 0
 150.715820312 597.041992188 221.466796875 633.509765625 285.82421875 633.509765625 c 0
127.588867188 26.48046875 m 0
 131.731445312 49.97265625 154.139648438 69.01953125 177.639648438 69.01953125 c 0
 201.138671875 69.01953125 216.83203125 49.96875 212.678710938 26.48046875 c 0
 208.53515625 2.98046875 186.127929688 -16.0703125 162.635742188 -16.0703125 c 0
 139.134765625 -16.0703125 123.4453125 2.9794921875 127.588867188 26.48046875 c 0
EndSplineSet
EndChar

StartChar: a
Encoding: 45 97 43
Width: 412
VWidth: 0
Flags: W
HStem: 0 21G<252.689 333.518> 203.807 33.6709<174.944 288.701>
LayerCount: 2
Fore
SplineSet
85.4814453125 359.279296875 m 1
 90.076171875 366.345703125 l 2
 132.310546875 431.3046875 243.92578125 456.7734375 334.430664062 414.435546875 c 0
 400.420898438 383.573242188 390.947265625 333.205078125 390.641601562 331.723632812 c 2
 350.079101562 101.686523438 l 1
 333.517578125 7.2451171875 l 1
 332.247070312 0 l 1
 324.740234375 0 l 1
 260.189453125 0 l 1
 252.689453125 0 l 1
 254.01171875 7.5 l 1
 260.873046875 46.4091796875 l 1
 204.57421875 -6.4326171875 165.57421875 -15.830078125 117.678710938 -15.830078125 c 0
 94.701171875 -15.830078125 75.1337890625 -11.4091796875 59.357421875 -3.48828125 c 0
 8.580078125 21.0498046875 -1.54296875 79.68359375 35.337890625 135.556640625 c 0
 83.0947265625 207.829101562 186.044921875 236.155273438 294.393554688 237.477539062 c 1
 306.866210938 308.212890625 l 2
 312.1953125 338.435546875 310.751953125 368.676757812 282.98046875 385.303710938 c 0
 280.868164062 386.568359375 278.053710938 388.032226562 274.6953125 389.5078125 c 0
 245.556640625 402.310546875 182.743164062 414.389648438 140.895507812 345.82421875 c 2
 136.973632812 339.3984375 l 1
 130.646484375 341.841796875 l 1
 92.5400390625 356.553710938 l 1
 85.4814453125 359.279296875 l 1
92.365234375 60.4365234375 m 0
 93.857421875 28.900390625 106.75 13.841796875 143.607421875 17.9521484375 c 0
 262.817382812 31.2470703125 282.6171875 162.263671875 288.701171875 203.806640625 c 1
 261.134765625 204.053710938 216.674804688 204.360351562 159.100585938 182.044921875 c 0
 104.935546875 161.05078125 90.55078125 97.890625 92.365234375 60.4365234375 c 0
EndSplineSet
EndChar

StartChar: b
Encoding: 46 98 44
Width: 369
VWidth: 0
Flags: W
HStem: -16.0703 50.1006<124.913 216.849> 0 21G<0.5 81.293> 382.05 51.71<194.551 274.74> 599.68 20G<108.443 189.237>
LayerCount: 2
Fore
SplineSet
285.138671875 202.23046875 m 0xb0
 304.78515625 313.6484375 289.931640625 382.049804688 235.456054688 382.049804688 c 0
 205.219726562 382.049804688 167.809570312 361.375 137.541992188 326.4453125 c 1
 97.7119140625 100.557617188 l 1
 112.926757812 63.0439453125 137.303710938 34.0302734375 170.73046875 34.0302734375 c 0
 222.333007812 34.0302734375 269.041992188 110.939453125 285.138671875 202.23046875 c 0xb0
146.760742188 378.78515625 m 1
 183.625976562 410.319335938 227.016601562 434.07421875 271.41015625 433.759765625 c 0
 342.786132812 433.20703125 393.163085938 364.454101562 364.541015625 202.181640625 c 0
 345.940429688 96.6923828125 300.78515625 -16.0703125 186.436523438 -16.0703125 c 0xb0
 133.775390625 -16.0703125 103.403320312 13.3447265625 87.2978515625 41.556640625 c 1
 81.29296875 7.5 l 1
 79.970703125 0 l 1
 72.470703125 0 l 1
 8 0 l 1
 0.5 0 l 1x70
 1.822265625 7.5 l 1
 108.443359375 612.1796875 l 1
 109.766601562 619.6796875 l 1
 117.266601562 619.6796875 l 1
 181.737304688 619.6796875 l 1
 189.237304688 619.6796875 l 1
 187.9140625 612.1796875 l 1
 146.760742188 378.78515625 l 1
EndSplineSet
EndChar

StartChar: c
Encoding: 47 99 45
Width: 443
VWidth: 0
Flags: W
HStem: -16.0703 34.2803<166.851 296.932> 402.08 33.8604<229.203 356.425>
LayerCount: 2
Fore
SplineSet
417.58203125 137.830078125 m 1
 415.157226562 129.139648438 l 2
 392.670898438 50.021484375 318.3125 -16.0703125 216.676757812 -16.0703125 c 0
 93.5166015625 -16.0703125 14.6318359375 85.818359375 37.890625 217.721679688 c 0
 71.71484375 409.548828125 239.2265625 435.940429688 301.30859375 435.940429688 c 0
 353.482421875 435.940429688 422.956054688 421.514648438 446.922851562 362.142578125 c 2
 449.553710938 355.627929688 l 1
 442.360351562 351.876953125 l 1
 403.8828125 331.806640625 l 1
 396.987304688 328.209960938 l 1
 394.235351562 334.329101562 l 2
 372.052734375 383.641601562 345.11328125 402.080078125 297.23828125 402.080078125 c 0
 187.840820312 402.080078125 133.212890625 289.700195312 120.512695312 217.67578125 c 0
 103.837890625 123.108398438 125.729492188 18.2099609375 222.201171875 18.2099609375 c 0
 288.09765625 18.2099609375 323.087890625 46.53125 346.955078125 76.59765625 c 0
 355.536132812 87.3046875 370.797851562 112.631835938 379.01171875 132.116210938 c 2
 381.419921875 137.830078125 l 1
 387.302734375 137.830078125 l 1
 410.196289062 137.830078125 l 1
 417.58203125 137.830078125 l 1
EndSplineSet
EndChar

StartChar: d
Encoding: 48 100 46
Width: 372
VWidth: 0
Flags: W
HStem: -16.0703 50.1104<131.438 213.189> 0 21G<249.01 329.803> 382.06 51.7002<180.299 280.261> 599.68 20G<356.963 437.747>
LayerCount: 2
Fore
SplineSet
170.251953125 34.0400390625 m 0xb0
 203.896484375 34.0400390625 239.223632812 64.2890625 266.74609375 100.584960938 c 1
 306.5703125 326.444335938 l 1
 287.993164062 362.571289062 258.255859375 382.059570312 228.256835938 382.059570312 c 0
 173.77734375 382.059570312 134.806640625 313.662109375 115.16015625 202.240234375 c 0
 99.0615234375 110.939453125 118.649414062 34.0400390625 170.251953125 34.0400390625 c 0xb0
358.286132812 619.6796875 m 1
 365.786132812 619.6796875 l 1
 430.247070312 619.6796875 l 1
 437.747070312 619.6796875 l 1
 436.423828125 612.1796875 l 1
 329.802734375 7.5 l 1
 328.48046875 0 l 1
 320.98046875 0 l 1
 256.509765625 0 l 1
 249.009765625 0 l 1x70
 250.33203125 7.5 l 1
 256.337890625 41.5576171875 l 1
 229.203125 12.1787109375 189.154296875 -16.0703125 136.786132812 -16.0703125 c 0
 22.525390625 -16.0703125 17.064453125 96.7763671875 35.650390625 202.181640625 c 0
 64.263671875 364.459960938 138.982421875 433.20703125 210.536132812 433.759765625 c 0
 255.274414062 434.16015625 290.921875 409.213867188 315.805664062 378.76171875 c 1
 356.962890625 612.1796875 l 1
 358.286132812 619.6796875 l 1
EndSplineSet
EndChar

StartChar: e
Encoding: 49 101 47
Width: 429
VWidth: 0
Flags: W
HStem: -16.0703 33.9443<148.272 254.881> 237.428 35.9023<123.537 334.861> 413.5 22.4502<211.159 296.333>
LayerCount: 2
Fore
SplineSet
333.41015625 273.330078125 m 5
 341.219726562 341.62890625 329.453125 413.5 254.720703125 413.5 c 4
 182.244140625 413.5 139.56640625 335.252929688 123.537109375 273.330078125 c 5
 333.41015625 273.330078125 l 5
356.448242188 164.875 m 5
 362.631835938 164.875 l 5
 387.1015625 164.875 l 5
 395.389648438 164.875 l 5
 393.15625 156.893554688 l 6
 391.677734375 151.607421875 389.981445312 146.54296875 388.224609375 141.615234375 c 4
 356.235351562 53.6171875 285.666992188 -16.0703125 192.076171875 -16.0703125 c 4
 134.6875 -16.0703125 85.4716796875 -6.1591796875 51.650390625 57.3837890625 c 4
 11.8056640625 132.381835938 35.05859375 252.692382812 72.3818359375 313.563476562 c 4
 130.666015625 408.591796875 207.77734375 435.950195312 259.759765625 435.950195312 c 4
 331.552734375 435.950195312 436.690429688 406.975585938 408.07421875 244.686523438 c 6
 406.794921875 237.427734375 l 5
 399.294921875 237.427734375 l 5
 116.530273438 237.427734375 l 5
 97.5810546875 138.34765625 103.155273438 17.8740234375 198.920898438 17.8740234375 c 4
 261.830078125 17.8740234375 320.625976562 78.9033203125 348.47265625 144.080078125 c 4
 348.897460938 145.0859375 352.009765625 153.102539062 354.233398438 159 c 6
 356.448242188 164.875 l 5
EndSplineSet
EndChar

StartChar: f
Encoding: 50 102 48
Width: 282
VWidth: 0
Flags: W
HStem: 0 21G<68.4717 149.202> 398.54 34.8701<75.9219 138.655 224.302 300.963> 598.4 35.1191<264.039 342.524>
LayerCount: 2
Fore
SplineSet
369.6328125 547.272460938 m 1
 366.33984375 552.145507812 l 2
 340.673828125 590.120117188 326.3046875 598.400390625 297.922851562 598.400390625 c 0
 260.004882812 598.400390625 246.435546875 558.9375 236.337890625 501.669921875 c 2
 224.301757812 433.41015625 l 1
 299.611328125 433.41015625 l 1
 307.111328125 433.41015625 l 1
 305.7890625 425.91015625 l 1
 302.28515625 406.040039062 l 1
 300.962890625 398.540039062 l 1
 293.462890625 398.540039062 l 1
 218.153320312 398.540039062 l 1
 149.202148438 7.5 l 1
 147.879882812 0 l 1
 140.379882812 0 l 1
 75.9697265625 0 l 1
 68.4716796875 0 l 1
 69.7919921875 7.498046875 l 1
 138.655273438 398.540039062 l 1
 77.2734375 398.540039062 l 1
 69.7734375 398.540039062 l 1
 71.095703125 406.040039062 l 1
 74.599609375 425.91015625 l 1
 75.921875 433.41015625 l 1
 83.421875 433.41015625 l 1
 144.801757812 433.41015625 l 1
 156.837890625 501.669921875 l 2
 171.5859375 585.311523438 216.997070312 633.51953125 301.446289062 633.51953125 c 0
 370.852539062 633.51953125 406.118164062 606.969726562 417.451171875 581.639648438 c 2
 420.326171875 575.21484375 l 1
 413.16796875 571.268554688 l 1
 375.684570312 550.608398438 l 1
 369.6328125 547.272460938 l 1
EndSplineSet
EndChar

StartChar: g
Encoding: 51 103 49
Width: 429
VWidth: 0
Flags: W
HStem: -200 77.5596<44.488 255.93> 17.8896 70.8135<75.3155 250.078 250.16 342.28> 129.31 34.1309<165.88 263.125> 402 33.9502<199.351 287.092>
LayerCount: 2
Fore
SplineSet
248.55078125 435.950195312 m 0
 275.032226562 435.950195312 311.413085938 427.272460938 338.896484375 410.532226562 c 1
 376.348632812 447.047851562 412.291015625 467.393554688 447.64453125 464.952148438 c 2
 454.756835938 464.4609375 l 1
 453.272460938 457.249023438 l 1
 444.75 415.829101562 l 1
 443.356445312 409.087890625 l 1
 436.385742188 408.745117188 l 2
 409.370117188 407.415039062 385.8984375 402.591796875 364.544921875 389.836914062 c 1
 377.153320312 376.282226562 400.451171875 342.71875 390.28125 285.043945312 c 0
 368.524414062 161.653320312 287.412109375 129.309570312 206.220703125 129.309570312 c 0
 167.254882812 129.309570312 130.778320312 136.727539062 109.499023438 148.543945312 c 1
 86.189453125 127.603515625 74.3525390625 112.375 72.81640625 103.889648438 c 0
 71.58984375 97.1171875 77.716796875 88.703125 117.760742188 88.703125 c 2
 255.9609375 88.703125 l 2
 347.485351562 88.703125 403.997070312 47.283203125 389.938476562 -32.4501953125 c 0
 370.536132812 -142.486328125 245.681640625 -200 155.584960938 -200 c 0
 42.89453125 -200 -29.87109375 -149.557617188 -17.4931640625 -79.3603515625 c 0
 -11.19921875 -43.6650390625 11.4541015625 -11.8037109375 51.587890625 19.15234375 c 1
 38.3583984375 22.5361328125 28.548828125 27.7236328125 21.966796875 34.6787109375 c 0
 -11.0654296875 69.5859375 44.0224609375 132.068359375 84.5322265625 167.983398438 c 1
 76.548828125 181.447265625 59.111328125 219.258789062 69.841796875 280.116210938 c 0
 87.63671875 381.036132812 168.423828125 435.950195312 248.55078125 435.950195312 c 0
312.51171875 279.43359375 m 0
 324.747070312 348.822265625 294.091796875 402 245.854492188 402 c 0
 197.133789062 402 160.208984375 356.768554688 148.651367188 291.22265625 c 0
 132.418945312 199.166015625 162.9375 163.440429688 211.509765625 163.440429688 c 0
 280.748046875 163.440429688 303.090820312 226.004882812 312.51171875 279.43359375 c 0
19.6494140625 -60.7998046875 m 0
 12.953125 -98.7763671875 53.58203125 -122.440429688 171.150390625 -122.440429688 c 0
 256.211914062 -122.440429688 344.709960938 -93.470703125 354.129882812 -40.099609375 c 0
 362.143554688 5.3515625 312.94140625 17.41015625 250.16015625 17.41015625 c 2
 250.16015625 17.41015625 137.098632812 17.8671875 87.2646484375 17.8896484375 c 1
 44.0458984375 -14.6455078125 22.2626953125 -45.978515625 19.6494140625 -60.7998046875 c 0
EndSplineSet
EndChar

StartChar: h
Encoding: 52 104 50
Width: 443
VWidth: 0
Flags: W
HStem: 0 21G<0.5 81.2822 301.642 382.468> 396.66 37.1201<203.693 335.461> 599.68 20G<108.443 189.227>
LayerCount: 2
Fore
SplineSet
381.19140625 0 m 1
 373.689453125 0 l 1
 309.139648438 0 l 1
 301.641601562 0 l 1
 302.961914062 7.498046875 l 1
 352.073242188 286.53515625 l 2
 363.487304688 351.265625 350.36328125 396.66015625 275.37109375 396.66015625 c 0
 210.172851562 396.66015625 141.619140625 349.685546875 131.9453125 294.825195312 c 2
 81.2822265625 7.5 l 1
 79.9599609375 0 l 1
 72.4599609375 0 l 1
 8 0 l 1
 0.5 0 l 1
 1.822265625 7.5 l 1
 108.443359375 612.1796875 l 1
 109.766601562 619.6796875 l 1
 117.266601562 619.6796875 l 1
 181.7265625 619.6796875 l 1
 189.2265625 619.6796875 l 1
 187.903320312 612.1796875 l 1
 148.459960938 388.482421875 l 1
 195.581054688 426.79296875 260.41796875 433.780273438 286.307617188 433.780273438 c 0
 358.655273438 433.780273438 451.204101562 397.526367188 433.141601562 295.087890625 c 2
 382.467773438 7.2509765625 l 1
 381.19140625 0 l 1
EndSplineSet
EndChar

StartChar: i
Encoding: 53 105 51
Width: 163
VWidth: 0
Flags: W
HStem: 0 21G<0.5 83.2031> 413.56 20G<75.626 158.329> 536.36 97.1592<108.796 179.786>
VStem: 0.5 192.371
LayerCount: 2
Fore
SplineSet
0.5 0 m 1
 1.822265625 7.5 l 1
 75.6259765625 426.059570312 l 1
 76.9482421875 433.559570312 l 1
 84.4482421875 433.559570312 l 1
 150.829101562 433.559570312 l 1
 158.329101562 433.559570312 l 1
 157.006835938 426.059570312 l 1
 83.203125 7.5 l 1
 81.880859375 0 l 1
 74.380859375 0 l 1
 8 0 l 1
 0.5 0 l 1
135.725585938 536.360351562 m 0
 108.897460938 536.360351562 90.9794921875 558.107421875 95.7109375 584.940429688 c 0
 100.44140625 611.76953125 126.025390625 633.51953125 152.857421875 633.51953125 c 0
 179.685546875 633.51953125 197.602539062 611.772460938 192.87109375 584.940429688 c 0
 188.140625 558.110351562 162.557617188 536.360351562 135.725585938 536.360351562 c 0
EndSplineSet
EndChar

StartChar: j
Encoding: 54 106 52
Width: 286
VWidth: 0
Flags: W
HStem: -200 35.4502<-5.30919 70.8166> 538.55 94.9697<220.669 290.909>
LayerCount: 2
Fore
SplineSet
303.28515625 586.040039062 m 0
 298.666015625 559.846679688 273.631835938 538.549804688 247.431640625 538.549804688 c 0
 221.161132812 538.549804688 203.708007812 559.85546875 208.325195312 586.040039062 c 0
 212.94140625 612.221679688 237.896484375 633.51953125 264.177734375 633.51953125 c 0
 290.373046875 633.51953125 307.904296875 612.237304688 303.28515625 586.040039062 c 0
179.4140625 -71.5498046875 m 2
 164.822265625 -154.3046875 124.818359375 -200 28.6650390625 -200 c 0
 -39.1494140625 -200 -88.5185546875 -168.1953125 -85.484375 -121.143554688 c 2
 -85.060546875 -114.56640625 l 1
 -78.353515625 -113.017578125 l 1
 -32.1103515625 -102.337890625 l 1
 -24.85546875 -100.663085938 l 1
 -24.0693359375 -107.536132812 l 2
 -20.4580078125 -139.12109375 2.9287109375 -164.549804688 35.345703125 -164.549804688 c 0
 74.857421875 -164.549804688 90.9658203125 -121.163085938 99.71484375 -71.546875 c 2
 188.564453125 431.3828125 l 1
 189.889648438 438.879882812 l 1
 197.38671875 438.879882812 l 1
 261.916992188 438.879882812 l 1
 269.416992188 438.879882812 l 1
 268.09375 431.379882812 l 1
 179.4140625 -71.5498046875 l 2
EndSplineSet
EndChar

StartChar: k
Encoding: 55 107 53
Width: 388
VWidth: 0
Flags: W
HStem: 0 21G<0.59082 81.3721 263.748 370.796> 401.04 20G<345.721 394.535> 599.68 20G<108.443 189.316>
LayerCount: 2
Fore
SplineSet
378.8984375 408.575195312 m 1
 189.64453125 257.715820312 l 1
 362.411132812 11.9287109375 l 1
 370.795898438 0 l 1
 354.58984375 0 l 1
 268.959960938 0 l 1
 265.53515625 0 l 1
 263.748046875 2.5888671875 l 1
 120.999023438 209.4140625 l 1
 116.30078125 205.58984375 l 1
 81.3720703125 7.5 l 1
 80.0498046875 0 l 1
 72.5498046875 0 l 1
 8.08984375 0 l 1
 0.5908203125 0 l 1
 1.912109375 7.4990234375 l 1
 108.443359375 612.178710938 l 1
 109.765625 619.6796875 l 1
 117.266601562 619.6796875 l 1
 181.81640625 619.6796875 l 1
 189.31640625 619.6796875 l 1
 187.993164062 612.1796875 l 1
 122.30859375 239.662109375 l 1
 345.720703125 419.017578125 l 1
 348.239257812 421.040039062 l 1
 351.200195312 421.040039062 l 1
 375.900390625 421.040039062 l 1
 394.53515625 421.040039062 l 1
 378.8984375 408.575195312 l 1
EndSplineSet
EndChar

StartChar: l
Encoding: 56 108 54
Width: 160
VWidth: 0
Flags: W
HStem: 0 21G<0.5 81.2832> 599.68 20G<108.443 189.228>
VStem: 0.5 188.728
LayerCount: 2
Fore
SplineSet
0.5 0 m 1
 1.822265625 7.5 l 1
 108.443359375 612.1796875 l 1
 109.766601562 619.6796875 l 1
 117.266601562 619.6796875 l 1
 181.727539062 619.6796875 l 1
 189.227539062 619.6796875 l 1
 187.904296875 612.1796875 l 1
 81.283203125 7.5 l 1
 79.9609375 0 l 1
 72.4609375 0 l 1
 8 0 l 1
 0.5 0 l 1
EndSplineSet
EndChar

StartChar: m
Encoding: 57 109 55
Width: 664
VWidth: 0
Flags: W
HStem: 0 21G<0.5 81.6113 279.029 360.222 526.241 607.352> 396.38 39.5703<198.161 310.455 467.336 566.885> 401.04 20G<73.418 154.529>
LayerCount: 2
Fore
SplineSet
654.512695312 346.705078125 m 0xc0
 658.760742188 331.383789062 659.178710938 301.422851562 655.5390625 280.782226562 c 2
 607.3515625 7.5 l 1
 606.029296875 0 l 1
 598.529296875 0 l 1
 533.739257812 0 l 1
 526.241210938 0 l 1
 527.561523438 7.498046875 l 1
 575.493164062 279.844726562 l 2
 590.670898438 365.919921875 565.4453125 396.379882812 526.041992188 396.379882812 c 0
 477.932617188 396.379882812 422.643554688 361.510742188 411.209960938 296.666015625 c 2
 360.221679688 7.5 l 1
 358.899414062 0 l 1
 351.399414062 0 l 1
 286.529296875 0 l 1
 279.029296875 0 l 1
 280.3515625 7.5 l 1
 330.135742188 289.83984375 l 2
 341.713867188 355.50390625 315.702148438 396.379882812 252.622070312 396.379882812 c 0xc0
 203.424804688 396.379882812 142.665039062 353.750976562 133.61328125 302.4140625 c 2
 81.611328125 7.5 l 1
 80.2890625 0 l 1
 72.7890625 0 l 1
 8 0 l 1
 0.5 0 l 1
 1.822265625 7.5 l 1
 73.41796875 413.540039062 l 1
 74.740234375 421.040039062 l 1
 82.240234375 421.040039062 l 1
 147.029296875 421.040039062 l 1
 154.529296875 421.040039062 l 1xa0
 153.20703125 413.540039062 l 1
 147.993164062 383.970703125 l 1
 190.7265625 418.150390625 234.387695312 435.950195312 275.4296875 435.950195312 c 0
 320.916015625 435.950195312 369.430664062 418.2421875 400.82421875 361.634765625 c 1
 443.450195312 412.189453125 495.126953125 435.950195312 540.549804688 435.950195312 c 0
 585.420898438 435.950195312 638.40625 405.461914062 654.512695312 346.705078125 c 0xc0
EndSplineSet
EndChar

StartChar: n
Encoding: 58 110 56
Width: 428
VWidth: 0
Flags: W
HStem: 0 21G<0.5 81.6123 279.03 360.223> 398.63 37.3203<197.678 310.14> 401.04 20G<73.418 154.53>
LayerCount: 2
Fore
SplineSet
275.430664062 435.950195312 m 0xc0
 322.841796875 435.950195312 431.10546875 409.497070312 407.348632812 274.763671875 c 2
 360.22265625 7.5 l 1
 358.900390625 0 l 1
 351.400390625 0 l 1
 286.530273438 0 l 1
 279.030273438 0 l 1
 280.352539062 7.5 l 1
 330.704101562 293.05859375 l 2
 342.290039062 358.76171875 316.192382812 398.629882812 253.01953125 398.629882812 c 0xc0
 203.716796875 398.629882812 143.224609375 356.920898438 134.197265625 305.723632812 c 2
 81.6123046875 7.5 l 1
 80.2900390625 0 l 1
 72.7900390625 0 l 1
 8 0 l 1
 0.5 0 l 1
 1.822265625 7.5 l 1
 73.41796875 413.540039062 l 1
 74.740234375 421.040039062 l 1
 82.240234375 421.040039062 l 1
 147.030273438 421.040039062 l 1
 154.530273438 421.040039062 l 1xa0
 153.208007812 413.540039062 l 1
 148.556640625 387.157226562 l 1
 191.685546875 421.123046875 234.71484375 435.950195312 275.430664062 435.950195312 c 0xc0
EndSplineSet
EndChar

StartChar: o
Encoding: 59 111 57
Width: 429
VWidth: 0
Flags: W
HStem: -16.0703 34.96<157.574 248.693> 407.28 28.6699<218.512 310.611>
LayerCount: 2
Fore
SplineSet
38.9892578125 218.283203125 m 0
 55.4091796875 311.40625 132.490234375 435.950195312 272.919921875 435.950195312 c 0
 394.421875 435.950195312 452.11328125 346.24609375 429.549804688 218.283203125 c 0
 412.725585938 122.87109375 343.3359375 -16.0703125 188.146484375 -16.0703125 c 0
 52.599609375 -16.0703125 20.0341796875 110.783203125 38.9892578125 218.283203125 c 0
266.384765625 407.280273438 m 0
 190.288085938 407.280273438 134.791015625 309.427734375 118.428710938 216.6328125 c 0
 100.634765625 115.715820312 128.682617188 18.8896484375 205.321289062 18.8896484375 c 0
 260.694335938 18.8896484375 332.065429688 114.586914062 350.05859375 216.6328125 c 0
 368.584960938 321.703125 340.118164062 407.280273438 266.384765625 407.280273438 c 0
EndSplineSet
EndChar

StartChar: p
Encoding: 60 112 58
Width: 414
VWidth: 0
Flags: W
HStem: -200 21G<-34.7656 44.6172> -4.00977 47.1299<110.055 255.884> 385.04 50.9102<174.074 301.709> 401.04 20G<73.418 152.801>
LayerCount: 2
Fore
SplineSet
183.9140625 43.1201171875 m 0xe0
 232.51953125 43.1201171875 300.724609375 63.203125 325.15625 201.759765625 c 0
 340.77734375 290.353515625 333.946289062 385.040039062 247.703125 385.040039062 c 0
 191.633789062 385.040039062 169.510742188 373.083984375 139.962890625 348.227539062 c 1
 93.3173828125 83.5810546875 l 1
 110.6640625 56.3193359375 139.1484375 43.1201171875 183.9140625 43.1201171875 c 0xe0
148.633789062 397.407226562 m 1
 185.140625 426.122070312 223.213867188 435.950195312 257.540039062 435.950195312 c 0xe0
 351.997070312 435.950195312 434.017578125 373.04296875 403.809570312 201.725585938 c 0
 380.169921875 67.6591796875 266.24609375 -4.009765625 177.012695312 -4.009765625 c 0
 132.928710938 -4.009765625 103.811523438 7.86328125 84.013671875 30.9287109375 c 1
 44.6171875 -192.5 l 1
 43.294921875 -200 l 1
 35.794921875 -200 l 1
 -27.265625 -200 l 1
 -34.765625 -200 l 1
 -33.443359375 -192.5 l 1
 73.41796875 413.540039062 l 1
 74.740234375 421.040039062 l 1
 82.240234375 421.040039062 l 1
 145.30078125 421.040039062 l 1
 152.80078125 421.040039062 l 1xd0
 151.478515625 413.540039062 l 1
 148.633789062 397.407226562 l 1
EndSplineSet
EndChar

StartChar: q
Encoding: 61 113 59
Width: 432
VWidth: 0
Flags: W
HStem: -200 21G<254.834 334.297> -4.00977 47.1299<136.154 276.528> 385.04 50.9102<194.037 336.642> 401.04 20G<363.107 442.48>
LayerCount: 2
Fore
SplineSet
351.572265625 348.227539062 m 1xe0
 330.100585938 373.908203125 312.620117188 385.040039062 256.8125 385.040039062 c 0
 170.567382812 385.040039062 130.346679688 290.354492188 114.725585938 201.759765625 c 0
 90.2939453125 63.2021484375 151.416992188 43.1201171875 200.0234375 43.1201171875 c 0
 245.145507812 43.1201171875 278.82421875 57.220703125 304.88671875 83.580078125 c 1
 351.572265625 348.227539062 l 1xe0
364.4296875 421.040039062 m 1xd0
 371.9296875 421.040039062 l 1
 434.98046875 421.040039062 l 1
 442.48046875 421.040039062 l 1xd0
 441.158203125 413.540039062 l 1
 334.296875 -192.5 l 1
 332.974609375 -200 l 1
 325.474609375 -200 l 1
 262.333984375 -200 l 1
 254.833984375 -200 l 1
 256.15625 -192.5 l 1
 295.548828125 30.90625 l 1
 267.724609375 7.6455078125 234.174804688 -4.009765625 190.3125 -4.009765625 c 0
 101.080078125 -4.009765625 12.4296875 67.658203125 36.0693359375 201.725585938 c 0
 66.27734375 373.04296875 170.4921875 435.950195312 264.950195312 435.950195312 c 0xe0
 299.481445312 435.950195312 334.842773438 425.078125 360.262695312 397.407226562 c 1
 363.107421875 413.540039062 l 1
 364.4296875 421.040039062 l 1xd0
EndSplineSet
EndChar

StartChar: r
Encoding: 62 114 60
Width: 287
VWidth: 0
Flags: W
HStem: 0 21G<0.5 81.7324> 403.96 20G<73.9336 155.166>
LayerCount: 2
Fore
SplineSet
334.6328125 426.981445312 m 1
 332.174804688 420.604492188 l 1
 319.459960938 388.25 l 1
 316.749023438 381.3515625 l 1
 309.78515625 382.610351562 l 2
 223.375 398.227539062 186.82421875 359.170898438 127.509765625 267.11328125 c 1
 81.732421875 7.5 l 1
 80.41015625 0 l 1
 72.91015625 0 l 1
 8 0 l 1
 0.5 0 l 1
 1.822265625 7.5 l 1
 73.93359375 416.459960938 l 1
 75.255859375 423.959960938 l 1
 82.755859375 423.959960938 l 1
 147.666015625 423.959960938 l 1
 155.166015625 423.959960938 l 1
 153.84375 416.459960938 l 1
 140.725585938 342.063476562 l 1
 193.193359375 414.119140625 268.340820312 452.546875 328.895507812 429.193359375 c 2
 334.6328125 426.981445312 l 1
EndSplineSet
EndChar

StartChar: s
Encoding: 63 115 61
Width: 341
VWidth: 0
Flags: W
HStem: -16.0703 34.8799<102.393 212.499> 400.97 34.9805<159.06 284.99>
VStem: 22.374 30.2471<73.6284 154.729> 301.523 29.7373<309.665 381.596>
LayerCount: 2
Fore
SplineSet
203.315429688 257.995117188 m 0
 287.458984375 231.361328125 327.586914062 185.265625 313.428710938 104.966796875 c 0
 299.059570312 23.4755859375 222.721679688 -16.0703125 151.036132812 -16.0703125 c 0
 84.185546875 -16.0703125 42.1904296875 21.748046875 22.7822265625 70.462890625 c 2
 22.3740234375 71.486328125 l 1
 22.3330078125 72.6396484375 l 2
 20.8583984375 113.174804688 25.4951171875 147.333984375 25.5283203125 147.573242188 c 2
 26.48828125 154.728515625 l 1
 33.732421875 155.360351562 l 1
 33.732421875 155.360351562 42.6875 156.140625 47.318359375 156.567382812 c 2
 54.806640625 157.256835938 l 1
 54.298828125 149.900390625 l 2
 53.7958984375 142.618164062 52.7265625 129.502929688 52.62109375 127.240234375 c 0
 50.44140625 78.2744140625 93.876953125 18.8095703125 155.896484375 18.8095703125 c 0
 189.080078125 18.8095703125 248.01171875 40.2734375 258.923828125 102.163085938 c 0
 266.986328125 147.885742188 237.745117188 162.041992188 167.860351562 185.115234375 c 0
 79.7509765625 214.263671875 61.5458984375 266.979492188 73.1474609375 332.780273438 c 0
 83.3173828125 390.45703125 151.1015625 435.950195312 227.370117188 435.950195312 c 0
 282.1328125 435.950195312 303.436523438 423.131835938 329.713867188 396.60546875 c 2
 330.865234375 395.44140625 l 1
 331.260742188 393.790039062 l 2
 337.806640625 366.473632812 328.09765625 317.171875 328.046875 316.891601562 c 2
 326.684570312 309.549804688 l 1
 319.327148438 309.4609375 l 1
 319.327148438 309.4609375 311.565429688 309.370117188 306.1953125 309.204101562 c 2
 298.974609375 308.979492188 l 1
 299.706054688 316.14453125 l 2
 300.395507812 322.8984375 301.548828125 336.106445312 301.5234375 337.61328125 c 0
 300.958984375 384.111328125 275.45703125 400.969726562 222.931640625 400.969726562 c 0
 177.66796875 400.969726562 138.751953125 384.8046875 130.026367188 335.321289062 c 0
 123.310546875 297.231445312 138.384765625 278.599609375 203.315429688 257.995117188 c 0
EndSplineSet
EndChar

StartChar: t
Encoding: 64 116 62
Width: 335
VWidth: 0
Flags: W
HStem: -16.0703 41.8008<179.332 253.331> 400.95 34.9795<76.2832 146.003 232.576 326.749>
VStem: 71.1982 261.719
LayerCount: 2
Fore
SplineSet
313.749023438 93.2802734375 m 1
 312.4296875 85.7998046875 l 2
 303.26171875 33.8076171875 267.317382812 -16.0703125 198.13671875 -16.0703125 c 0
 151.46875 -16.0703125 122.364257812 -4.1796875 103.412109375 31.23828125 c 0
 83.638671875 68.2939453125 95.994140625 115.318359375 107.889648438 182.780273438 c 2
 146.4453125 400.950195312 l 1
 78.6982421875 400.950195312 l 1
 71.1982421875 400.950195312 l 1
 72.5205078125 408.450195312 l 1
 74.9609375 422.290039062 l 1
 76.283203125 429.790039062 l 1
 83.783203125 429.790039062 l 1
 106.793945312 429.790039062 l 2
 152.049804688 429.790039062 206.663085938 452.530273438 216.890625 510.530273438 c 2
 220.931640625 533.450195312 l 1
 222.25390625 540.950195312 l 1
 229.75390625 540.950195312 l 1
 243.59375 540.950195312 l 1
 251.09375 540.950195312 l 1
 249.771484375 533.450195312 l 1
 232.576171875 435.9296875 l 1
 325.416992188 435.9296875 l 1
 332.916992188 435.9296875 l 1
 331.594726562 428.4296875 l 1
 328.071289062 408.450195312 l 1
 326.749023438 400.950195312 l 1
 319.249023438 400.950195312 l 1
 226.408203125 400.950195312 l 1
 179.637695312 135.703125 l 2
 166.088867188 58.86328125 178.721679688 25.73046875 203.8671875 25.73046875 c 0
 242.1640625 25.73046875 256.102539062 43.8798828125 267.475585938 71.6435546875 c 0
 267.995117188 72.853515625 270.78125 79.80078125 273.755859375 87.3701171875 c 2
 276.081054688 93.2802734375 l 1
 282.12890625 93.2802734375 l 1
 307.186523438 93.2802734375 l 1
 313.749023438 93.2802734375 l 1
EndSplineSet
EndChar

StartChar: u
Encoding: 65 117 63
Width: 419
VWidth: 0
Flags: W
HStem: -16.0703 39.3604<128.124 227.761> 0 21G<277.811 358.623> 401.04 20G<73.418 154.311 350.738 431.541>
LayerCount: 2
Fore
SplineSet
431.541015625 421.040039062 m 1xa0
 430.21875 413.540039062 l 1
 358.623046875 7.5 l 1
 357.30078125 0 l 1
 349.80078125 0 l 1
 285.310546875 0 l 1
 277.810546875 0 l 1x60
 279.1328125 7.5 l 1
 286.512695312 49.3525390625 l 1
 249.7578125 14.3994140625 210.90625 -16.0703125 157.296875 -16.0703125 c 0
 108.55078125 -16.0703125 5.736328125 29.6953125 29.2490234375 163.045898438 c 2
 73.41796875 413.540039062 l 1
 74.740234375 421.040039062 l 1
 82.240234375 421.040039062 l 1
 146.810546875 421.040039062 l 1
 154.310546875 421.040039062 l 1
 152.98828125 413.540039062 l 1
 105.607421875 144.828125 l 2
 93.9130859375 78.5087890625 118.48828125 23.2900390625 179.997070312 23.2900390625 c 0
 227.50390625 23.2900390625 291.9609375 80.1943359375 301.134765625 132.22265625 c 2
 350.73828125 413.540039062 l 1
 352.060546875 421.040039062 l 1
 359.560546875 421.040039062 l 1
 424.041015625 421.040039062 l 1
 431.541015625 421.040039062 l 1xa0
EndSplineSet
EndChar

StartChar: v
Encoding: 66 118 64
Width: 413
VWidth: 0
Flags: W
HStem: 401.04 20G<74.2695 161.612 404.033 442.687>
LayerCount: 2
Fore
SplineSet
406.5703125 421.040039062 m 1
 412.169921875 421.040039062 l 1
 432.66015625 421.040039062 l 1
 442.686523438 421.040039062 l 1
 438.215820312 411.745117188 l 1
 235.0390625 -10.6884765625 l 1
 232.505859375 -16.0703125 l 1
 226.895507812 -16.0703125 l 1
 178.435546875 -16.0703125 l 1
 173.30859375 -16.0703125 l 1
 172.290039062 -11.29296875 l 1
 76.5107421875 411.16015625 l 1
 74.26953125 421.040039062 l 1
 85.240234375 421.040039062 l 1
 155.48046875 421.040039062 l 1
 160.5546875 421.040039062 l 1
 161.612304688 416.330078125 l 1
 239.743164062 68.1884765625 l 1
 404.033203125 415.671875 l 1
 406.5703125 421.040039062 l 1
EndSplineSet
EndChar

StartChar: w
Encoding: 67 119 65
Width: 615
VWidth: 0
Flags: W
HStem: 401.04 20G<73.2715 160.441 605.402 643.964>
LayerCount: 2
Fore
SplineSet
643.963867188 421.040039062 m 1
 639.49609375 411.74609375 l 1
 436.41015625 -10.6875 l 1
 433.876953125 -16.0703125 l 1
 428.265625 -16.0703125 l 1
 379.795898438 -16.0703125 l 1
 374.66796875 -16.0703125 l 1
 373.649414062 -11.291015625 l 1
 330.025390625 193.489257812 l 1
 233.950195312 -10.6875 l 1
 231.416992188 -16.0703125 l 1
 225.805664062 -16.0703125 l 1
 177.345703125 -16.0703125 l 1
 172.217773438 -16.0703125 l 1
 171.19921875 -11.291015625 l 1
 75.509765625 411.162109375 l 1
 73.271484375 421.040039062 l 1
 84.240234375 421.040039062 l 1
 154.309570312 421.040039062 l 1
 159.3828125 421.040039062 l 1
 160.44140625 416.331054688 l 1
 238.634765625 68.1142578125 l 1
 366.196289062 338.110351562 l 1
 375.971679688 358.80078125 l 1
 380.465820312 338.76953125 l 1
 441.1875 68.119140625 l 1
 605.40234375 415.669921875 l 1
 607.939453125 421.040039062 l 1
 613.540039062 421.040039062 l 1
 633.939453125 421.040039062 l 1
 643.963867188 421.040039062 l 1
EndSplineSet
EndChar

StartChar: x
Encoding: 68 120 66
Width: 467
VWidth: 0
Flags: W
HStem: 0 21G<-0.491211 45.0225 333.244 435.254> 401.04 20G<95.9482 195.816 422.771 468.198>
LayerCount: 2
Fore
SplineSet
456.513671875 409.3046875 m 1
 293.881835938 245.979492188 l 1
 428.647460938 11.494140625 l 1
 435.25390625 0 l 1
 420.549804688 0 l 1
 338.780273438 0 l 1
 334.938476562 0 l 1
 333.244140625 3.1171875 l 1
 230.237304688 192.541015625 l 1
 45.0224609375 2.8154296875 l 1
 42.275390625 0 l 1
 38.669921875 0 l 1
 15 0 l 1
 -0.4912109375 0 l 1
 11.1865234375 11.7333984375 l 1
 211.249023438 212.767578125 l 1
 102.268554688 409.625976562 l 1
 95.9482421875 421.040039062 l 1
 110.41015625 421.040039062 l 1
 190.280273438 421.040039062 l 1
 194.12109375 421.040039062 l 1
 195.81640625 417.923828125 l 1
 276.87890625 268.94140625 l 1
 422.771484375 418.228515625 l 1
 425.517578125 421.040039062 l 1
 429.120117188 421.040039062 l 1
 452.700195312 421.040039062 l 1
 468.198242188 421.040039062 l 1
 456.513671875 409.3046875 l 1
EndSplineSet
EndChar

StartChar: y
Encoding: 69 121 67
Width: 418
VWidth: 0
Flags: W
HStem: -200 34.5498<-32.5028 68.7667> 401.04 20G<78.3477 160.922 421.649 459.935>
LayerCount: 2
Fore
SplineSet
117.994140625 -151.147460938 m 0
 86.2451171875 -186.420898438 44.029296875 -200 13.9345703125 -200 c 0
 -18.98828125 -200 -58.1025390625 -189.801757812 -76.4619140625 -156.984375 c 2
 -79.7890625 -151.037109375 l 1
 -73.1220703125 -146.568359375 l 1
 -55.4541015625 -134.728515625 l 1
 -49.5625 -130.780273438 l 1
 -45.744140625 -135.380859375 l 2
 -27.9482421875 -156.82421875 -8.099609375 -165.450195312 14.8974609375 -165.450195312 c 0
 38.212890625 -165.450195312 57.08203125 -158.345703125 78.7314453125 -141.668945312 c 0
 102.733398438 -123.608398438 151.959960938 -41.255859375 198.520507812 38.2431640625 c 1
 81.6298828125 410.586914062 l 1
 78.34765625 421.040039062 l 1
 90.240234375 421.040039062 l 1
 154.98046875 421.040039062 l 1
 159.530273438 421.040039062 l 1
 160.921875 417.004882812 l 1
 256.060546875 140.834960938 l 1
 421.649414062 416.4609375 l 1
 424.395507812 421.030273438 l 1
 429.359375 421.030273438 l 1
 448.809570312 421.030273438 l 1
 459.934570312 421.030273438 l 1
 453.997070312 411.025390625 l 2
 435.036132812 379.067382812 401.07421875 321.723632812 392.422851562 306.823242188 c 0
 344.436523438 224.82421875 221.750976562 15.0302734375 174.288085938 -65.849609375 c 0
 160.232421875 -90.3544921875 140.99609375 -125.58984375 117.994140625 -151.147460938 c 0
EndSplineSet
EndChar

StartChar: z
Encoding: 70 122 68
Width: 412
VWidth: 0
Flags: W
HStem: 0 33.917<118.512 352.25> 386.16 34.8799<88.7402 303.592>
LayerCount: 2
Fore
SplineSet
358.216796875 33.841796875 m 1
 356.94140625 26.6064453125 l 1
 353.572265625 7.5 l 1
 352.25 0 l 1
 344.75 0 l 1
 12.7890625 0 l 1
 -0.3193359375 0 l 1
 8.2412109375 10.8779296875 l 1
 303.591796875 386.16015625 l 1
 90.0908203125 386.16015625 l 1
 82.5908203125 386.16015625 l 1
 83.9130859375 393.66015625 l 1
 87.41796875 413.540039062 l 1
 88.740234375 421.040039062 l 1
 96.240234375 421.040039062 l 1
 411.41015625 421.040039062 l 1
 424.575195312 421.040039062 l 1
 415.934570312 410.112304688 l 1
 118.51171875 33.9169921875 l 1
 350.720703125 33.8447265625 l 1
 358.216796875 33.841796875 l 1
EndSplineSet
EndChar

StartChar: exclam
Encoding: 1 33 69
Width: 164
VWidth: 0
Flags: W
HStem: -16.0703 85.0898<13.7803 80.1282> 613.52 20G<112.884 193.827>
VStem: 4.40918 189.418
LayerCount: 2
Fore
SplineSet
193.827148438 633.51953125 m 1
 192.50390625 626.01953125 l 2
 154.759765625 411.958984375 83.8271484375 136.643554688 83.8017578125 136.54296875 c 2
 82.02734375 129.650390625 l 1
 75.111328125 129.650390625 l 1
 55.2314453125 129.650390625 l 1
 48.3154296875 129.650390625 l 1
 48.970703125 136.543945312 l 2
 48.98046875 136.643554688 75.1708984375 412.139648438 112.883789062 626.01953125 c 2
 114.20703125 633.51953125 l 1
 121.70703125 633.51953125 l 1
 186.327148438 633.51953125 l 1
 193.827148438 633.51953125 l 1
4.4091796875 26.48046875 m 0
 8.5517578125 49.97265625 30.9609375 69.01953125 54.4599609375 69.01953125 c 0
 77.9521484375 69.01953125 93.6416015625 49.9716796875 89.4990234375 26.48046875 c 0
 85.35546875 2.98046875 62.94921875 -16.0703125 39.4560546875 -16.0703125 c 0
 15.9560546875 -16.0703125 0.265625 2.9794921875 4.4091796875 26.48046875 c 0
EndSplineSet
EndChar

StartChar: emdash
Encoding: 73 8212 71
Width: 695
VWidth: 0
Flags: W
HStem: 168.729 79.5703<45.0225 633.251>
LayerCount: 2
Fore
SplineSet
45.0224609375 248.298828125 m 1
 52.5224609375 248.298828125 l 1
 639.782226562 248.298828125 l 1
 647.282226562 248.298828125 l 1
 645.958984375 240.798828125 l 1
 634.57421875 176.228515625 l 1
 633.250976562 168.728515625 l 1
 625.750976562 168.728515625 l 1
 38.4912109375 168.728515625 l 1
 30.9912109375 168.728515625 l 1
 32.314453125 176.228515625 l 1
 43.69921875 240.798828125 l 1
 45.0224609375 248.298828125 l 1
EndSplineSet
EndChar

StartChar: quotedblleft
Encoding: 71 8220 72
Width: 336
VWidth: 0
Flags: W
HStem: 467.74 123.1<161.735 193.81 317.075 349.153>
VStem: 91.9229 124.005<490.143 581.138> 247.263 124.005<490.143 581.138>
LayerCount: 2
Fore
SplineSet
161.735351562 590.749023438 m 1
 164.950195312 590.876953125 163.759765625 590.83984375 165.23046875 590.83984375 c 0
 199.205078125 590.83984375 221.907226562 563.263671875 215.927734375 529.290039062 c 0
 209.935546875 495.306640625 177.497070312 467.740234375 143.525390625 467.740234375 c 0
 109.54296875 467.740234375 86.4306640625 493.0078125 91.9228515625 524.155273438 c 0
 95.15234375 542.469726562 97.7001953125 553.663085938 107.91015625 572.34765625 c 0
 123.930664062 601.588867188 157.649414062 615.893554688 192.954101562 632.55859375 c 2
 200.314453125 636.321289062 l 1
 202.71875 629.53515625 l 2
 204.552734375 626.259765625 207.920898438 620.341796875 210.09375 616.546875 c 2
 212.934570312 611.583984375 l 1
 205.461914062 609.119140625 l 2
 198.749023438 606.904296875 188.102539062 603.358398438 186.502929688 602.813476562 c 0
 180.029296875 600.525390625 168.717773438 595.1015625 161.735351562 590.749023438 c 1
317.075195312 590.749023438 m 1
 320.290039062 590.876953125 319.099609375 590.83984375 320.5703125 590.83984375 c 0
 354.553710938 590.83984375 377.2578125 563.26171875 371.267578125 529.290039062 c 0
 365.275390625 495.307617188 332.84765625 467.740234375 298.865234375 467.740234375 c 0
 264.8828125 467.740234375 241.770507812 493.0078125 247.262695312 524.155273438 c 0
 250.4921875 542.469726562 253.040039062 553.663085938 263.25 572.34765625 c 0
 279.270507812 601.588867188 312.989257812 615.893554688 348.293945312 632.55859375 c 2
 355.654296875 636.321289062 l 1
 358.05859375 629.53515625 l 2
 359.892578125 626.259765625 363.260742188 620.341796875 365.43359375 616.547851562 c 2
 368.27734375 611.583984375 l 1
 360.802734375 609.119140625 l 2
 354.088867188 606.904296875 343.442382812 603.358398438 341.842773438 602.813476562 c 0
 335.369140625 600.525390625 324.057617188 595.1015625 317.075195312 590.749023438 c 1
EndSplineSet
EndChar

StartChar: quotedblright
Encoding: 72 8221 73
Width: 316
VWidth: 0
Flags: W
HStem: 510.42 123.1<123.468 155.546 278.812 310.886>
VStem: 101.354 124.005<520.122 611.117> 256.693 124.005<520.121 611.117>
LayerCount: 2
Fore
SplineSet
310.885742188 510.510742188 m 1
 307.671875 510.3828125 308.861328125 510.419921875 307.390625 510.419921875 c 0
 273.416015625 510.419921875 250.713867188 537.99609375 256.693359375 571.969726562 c 0
 262.685546875 605.953125 295.125 633.51953125 329.096679688 633.51953125 c 0
 363.079101562 633.51953125 386.190429688 608.251953125 380.698242188 577.104492188 c 0
 377.46875 558.790039062 374.921875 547.59765625 364.7109375 528.912109375 c 0
 348.690429688 499.670898438 314.971679688 485.366210938 279.666992188 468.701171875 c 2
 272.305664062 464.938476562 l 1
 269.90234375 471.725585938 l 2
 268.069335938 475.000976562 264.700195312 480.918945312 262.528320312 484.712890625 c 2
 259.685546875 489.67578125 l 1
 267.159179688 492.140625 l 2
 273.872070312 494.35546875 284.518554688 497.901367188 286.118164062 498.446289062 c 0
 292.591796875 500.734375 303.904296875 506.159179688 310.885742188 510.510742188 c 1
155.545898438 510.510742188 m 1
 152.33203125 510.3828125 153.521484375 510.419921875 152.05078125 510.419921875 c 0
 118.067382812 510.419921875 95.36328125 537.998046875 101.353515625 571.969726562 c 0
 107.345703125 605.952148438 139.774414062 633.51953125 173.756835938 633.51953125 c 0
 207.739257812 633.51953125 230.850585938 608.251953125 225.358398438 577.104492188 c 0
 222.12890625 558.790039062 219.58203125 547.59765625 209.37109375 528.912109375 c 0
 193.350585938 499.670898438 159.631835938 485.366210938 124.327148438 468.701171875 c 2
 116.965820312 464.938476562 l 1
 114.5625 471.725585938 l 2
 112.729492188 475.000976562 109.360351562 480.918945312 107.1875 484.711914062 c 2
 104.34375 489.67578125 l 1
 111.818359375 492.140625 l 2
 118.532226562 494.35546875 129.178710938 497.901367188 130.778320312 498.446289062 c 0
 137.251953125 500.734375 148.564453125 506.159179688 155.545898438 510.510742188 c 1
EndSplineSet
EndChar

StartChar: quoteleft
Encoding: 74 8216 74
Width: 158
VWidth: 0
Flags: W
HStem: 467.74 168.581
VStem: 92.9229 124.005<490.143 581.138>
LayerCount: 2
Fore
SplineSet
162.735351562 590.749023438 m 1
 165.950195312 590.876953125 164.759765625 590.83984375 166.23046875 590.83984375 c 0
 200.204101562 590.83984375 222.91796875 563.263671875 216.927734375 529.290039062 c 0
 210.935546875 495.307617188 178.5078125 467.740234375 144.525390625 467.740234375 c 0
 110.54296875 467.740234375 87.4306640625 493.0078125 92.9228515625 524.155273438 c 0
 96.15234375 542.469726562 98.7001953125 553.663085938 108.91015625 572.34765625 c 0
 124.930664062 601.588867188 158.649414062 615.893554688 193.954101562 632.55859375 c 2
 201.314453125 636.321289062 l 1
 203.71875 629.53515625 l 2
 205.552734375 626.259765625 208.920898438 620.341796875 211.09375 616.547851562 c 2
 213.9375 611.583984375 l 1
 206.462890625 609.119140625 l 2
 199.749023438 606.904296875 189.102539062 603.358398438 187.502929688 602.813476562 c 0
 181.029296875 600.525390625 169.717773438 595.1015625 162.735351562 590.749023438 c 1
EndSplineSet
EndChar

StartChar: quoteright
Encoding: 75 8217 75
Width: 151
VWidth: 0
Flags: W
HStem: 464.938 168.581
VStem: 101.354 124.005<520.121 611.117>
LayerCount: 2
Fore
SplineSet
155.545898438 510.510742188 m 1
 152.33203125 510.3828125 153.521484375 510.419921875 152.05078125 510.419921875 c 0
 118.077148438 510.419921875 95.36328125 537.99609375 101.353515625 571.969726562 c 0
 107.345703125 605.953125 139.78515625 633.51953125 173.756835938 633.51953125 c 0
 207.739257812 633.51953125 230.850585938 608.251953125 225.358398438 577.104492188 c 0
 222.12890625 558.790039062 219.58203125 547.59765625 209.37109375 528.912109375 c 0
 193.350585938 499.670898438 159.631835938 485.366210938 124.327148438 468.701171875 c 2
 116.965820312 464.938476562 l 1
 114.5625 471.725585938 l 2
 112.729492188 475.000976562 109.360351562 480.918945312 107.1875 484.711914062 c 2
 104.34375 489.67578125 l 1
 111.818359375 492.140625 l 2
 118.532226562 494.35546875 129.178710938 497.901367188 130.778320312 498.446289062 c 0
 137.251953125 500.734375 148.564453125 506.159179688 155.545898438 510.510742188 c 1
EndSplineSet
EndChar

StartChar: endash
Encoding: 76 8211 76
Width: 449
VWidth: 0
Flags: W
HStem: 168.729 79.5703<44.2822 386.741>
LayerCount: 2
Fore
SplineSet
44.2822265625 248.298828125 m 1
 51.7822265625 248.298828125 l 1
 393.272460938 248.298828125 l 1
 400.772460938 248.298828125 l 1
 399.44921875 240.798828125 l 1
 388.064453125 176.228515625 l 1
 386.741210938 168.728515625 l 1
 379.241210938 168.728515625 l 1
 37.7509765625 168.728515625 l 1
 30.2509765625 168.728515625 l 1
 31.57421875 176.228515625 l 1
 42.958984375 240.798828125 l 1
 44.2822265625 248.298828125 l 1
EndSplineSet
EndChar

StartChar: f_f
Encoding: 77 64256 77
Width: 540
VWidth: 0
Flags: W
HStem: 0 21G<68.4717 149.202 269.141 349.872> 398.54 34.8701<75.9219 138.655 224.291 339.334 424.972 501.633> 598.4 35.1191<264.039 345.295 463.85 543.19>
LayerCount: 2
Fore
SplineSet
408.565429688 603.715820312 m 1
 433.141601562 624.182617188 463.6640625 633.51953125 502.116210938 633.51953125 c 0
 571.514648438 633.51953125 606.78515625 606.959960938 618.120117188 581.640625 c 2
 620.997070312 575.21484375 l 1
 613.837890625 571.268554688 l 1
 576.354492188 550.608398438 l 1
 570.303710938 547.2734375 l 1
 567.009765625 552.14453125 l 2
 541.333007812 590.120117188 526.973632812 598.400390625 498.59375 598.400390625 c 0
 460.674804688 598.400390625 447.10546875 558.9375 437.0078125 501.669921875 c 2
 424.971679688 433.41015625 l 1
 500.28125 433.41015625 l 1
 507.78125 433.41015625 l 1
 506.458984375 425.91015625 l 1
 502.955078125 406.040039062 l 1
 501.6328125 398.540039062 l 1
 494.1328125 398.540039062 l 1
 418.823242188 398.540039062 l 1
 349.872070312 7.5 l 1
 348.549804688 0 l 1
 341.049804688 0 l 1
 276.639648438 0 l 1
 269.140625 0 l 1
 270.461914062 7.4990234375 l 1
 339.333984375 398.540039062 l 1
 293.47265625 398.540039062 l 1
 277.943359375 398.540039062 l 1
 218.153320312 398.540039062 l 1
 149.202148438 7.5 l 1
 147.879882812 0 l 1
 140.379882812 0 l 1
 75.9697265625 0 l 1
 68.4716796875 0 l 1
 69.7919921875 7.498046875 l 1
 138.655273438 398.540039062 l 1
 77.2734375 398.540039062 l 1
 69.7734375 398.540039062 l 1
 71.095703125 406.040039062 l 1
 74.599609375 425.91015625 l 1
 75.921875 433.41015625 l 1
 83.421875 433.41015625 l 1
 144.811523438 433.41015625 l 1
 156.84765625 501.669921875 l 2
 171.595703125 585.311523438 217.006835938 633.51953125 301.45703125 633.51953125 c 0
 352.100585938 633.51953125 387.314453125 619.74609375 408.565429688 603.715820312 c 1
345.471679688 433.41015625 m 1
 357.5078125 501.669921875 l 2
 361.041015625 521.70703125 366.3984375 539.69921875 373.353515625 555.432617188 c 1
 344.583984375 586.254882812 324.432617188 598.400390625 297.913085938 598.400390625 c 0
 259.995117188 598.400390625 246.424804688 558.9375 236.327148438 501.669921875 c 2
 224.291015625 433.41015625 l 1
 284.081054688 433.41015625 l 1
 299.611328125 433.41015625 l 1
 345.471679688 433.41015625 l 1
EndSplineSet
LCarets2: 1 223
Ligature2: "'liga' Standard Ligatures in Latin lookup 0-1" f f
EndChar

StartChar: f_i
Encoding: 78 64257 78
Width: 463
VWidth: 0
Flags: W
HStem: 0 21G<61.4717 142.202 261.87 342.427> 398 35.4199<68.9238 131.512 217.294 332> 598.41 35.1201<261.106 346.02>
LayerCount: 2
Fore
SplineSet
341.26953125 0 m 1
 333.779296875 0 l 1
 269.370117188 0 l 1
 261.870117188 0 l 1
 263.192382812 7.5 l 1
 332 398 l 5
 211.009765625 398 l 5
 142.202148438 7.5 l 1
 140.879882812 0 l 1
 133.379882812 0 l 1
 68.9697265625 0 l 1
 61.4716796875 0 l 1
 62.7919921875 7.498046875 l 1
 131.51171875 398 l 5
 70.1298828125 398 l 5
 62.6298828125 398 l 5
 63.23046875 401.403320312 l 5
 67.6015625 425.919921875 l 1
 68.923828125 433.419921875 l 1
 76.423828125 433.419921875 l 1
 137.803710938 433.419921875 l 1
 149.83984375 501.6796875 l 2
 164.705078125 585.986328125 217.79296875 633.530273438 301.817382812 633.530273438 c 0
 371.092773438 633.530273438 410.529296875 607.276367188 422.002929688 581.650390625 c 2
 424.880859375 575.224609375 l 1
 417.719726562 571.278320312 l 1
 380.236328125 550.618164062 l 1
 374.184570312 547.282226562 l 1
 370.891601562 552.155273438 l 2
 345.459960938 589.782226562 326.868164062 598.41015625 298.294921875 598.41015625 c 0
 259.7734375 598.41015625 239.215820312 557.74609375 229.330078125 501.6796875 c 2
 217.293945312 433.419921875 l 1
 410.193359375 433.419921875 l 1
 417.693359375 433.419921875 l 1
 416.37109375 425.919921875 l 1
 342.426757812 6.5625 l 1
 341.26953125 0 l 1
EndSplineSet
EndChar

StartChar: f_l
Encoding: 79 64258 79
Width: 448
VWidth: 0
Flags: W
HStem: 0 21G<61.4717 142.231 261.859 342.502> 398 35.4102<68.9238 131.473 217.331 293.811> 598.4 35.1299<259.656 348.111>
LayerCount: 2
Fore
SplineSet
296.712890625 598.400390625 m 0
 270.465820312 598.400390625 243.244140625 580.369140625 229.3671875 501.669921875 c 2
 217.331054688 433.41015625 l 1
 292.611328125 433.41015625 l 1
 300.141601562 433.41015625 l 1
 295.999023438 410.41015625 l 1
 294.41015625 401.40234375 l 1
 293.810546875 398 l 1
 286.280273438 398 l 1
 211 398 l 1
 142.231445312 7.5 l 1
 140.909179688 0 l 1
 133.379882812 0 l 1
 69 0 l 1
 61.4716796875 0 l 1
 62.7919921875 7.498046875 l 1
 131.47265625 398 l 1
 70.0908203125 398 l 1
 62.5908203125 398 l 1
 63.19140625 401.403320312 l 1
 64.78125 410.419921875 l 1
 68.923828125 433.419921875 l 1
 76.453125 433.419921875 l 1
 137.803710938 433.419921875 l 1
 149.83984375 501.6796875 l 2
 158.890625 553.009765625 181.38671875 591.673828125 218.357421875 613.482421875 c 0
 241.1015625 626.909179688 268.501953125 633.530273438 300.248046875 633.530273438 c 0
 361.129882812 633.530273438 407.86328125 618.005859375 440.342773438 573.359375 c 2
 441.900390625 571.216796875 l 1
 441.391601562 568.330078125 l 1
 342.501953125 7.5 l 1
 341.1796875 0 l 1
 333.6796875 0 l 1
 269.359375 0 l 1
 261.859375 0 l 1
 263.181640625 7.5 l 1
 361.506835938 565.127929688 l 1
 341.395507812 595.83203125 318.624023438 598.400390625 296.712890625 598.400390625 c 0
EndSplineSet
EndChar

StartChar: f_fi
Encoding: 80 64259 80
Width: 664
VWidth: 0
Flags: W
HStem: 0 21G<68.9922 149.723 273.571 354.303 473.97 554.702> 398 35.4102<76.4219 138.912 224.822 343.521 429.402 544> 598.4 35.1191<264.549 347.684 473.189 558.119>
LayerCount: 2
Fore
SplineSet
629.801757812 433.41015625 m 1
 628.479492188 425.91015625 l 1
 554.702148438 7.5 l 1
 553.379882812 0 l 1
 545.879882812 0 l 1
 481.469726562 0 l 1
 473.969726562 0 l 1
 475.291992188 7.5 l 1
 544 398 l 5
 423.010742188 398 l 5
 354.302734375 7.5 l 1
 352.98046875 0 l 1
 345.48046875 0 l 1
 281.0703125 0 l 1
 273.571289062 0 l 1
 274.892578125 7.4990234375 l 1
 343.521484375 398 l 5
 218.430664062 398 l 5
 149.72265625 7.5 l 1
 148.400390625 0 l 1
 140.900390625 0 l 1
 76.490234375 0 l 1
 68.9921875 0 l 1
 70.3125 7.498046875 l 1
 138.912109375 398 l 5
 77.5302734375 398 l 5
 70.0302734375 398 l 5
 70.6298828125 401.400390625 l 5
 75.099609375 425.91015625 l 1
 76.421875 433.41015625 l 1
 83.921875 433.41015625 l 1
 145.301757812 433.41015625 l 1
 157.337890625 501.669921875 l 2
 172.0859375 585.311523438 217.497070312 633.51953125 301.947265625 633.51953125 c 0
 352.412109375 633.51953125 391.051757812 618.96875 414.489257812 601.5078125 c 1
 440.393554688 622.950195312 473.872070312 633.51953125 513.916992188 633.51953125 c 0
 583.19140625 633.51953125 622.629882812 607.27734375 634.102539062 581.639648438 c 2
 636.977539062 575.21484375 l 1
 629.819335938 571.268554688 l 1
 592.334960938 550.608398438 l 1
 586.283203125 547.272460938 l 1
 582.990234375 552.145507812 l 2
 557.559570312 589.772460938 538.966796875 598.400390625 510.393554688 598.400390625 c 0
 471.873046875 598.400390625 451.325195312 557.73828125 441.438476562 501.669921875 c 2
 429.40234375 433.41015625 l 1
 622.301757812 433.41015625 l 1
 629.801757812 433.41015625 l 1
236.858398438 501.669921875 m 2
 224.822265625 433.41015625 l 1
 349.912109375 433.41015625 l 1
 361.948242188 501.669921875 l 2
 365.368164062 521.064453125 371.126953125 539.138671875 378.168945312 554.053710938 c 1
 347.883789062 587.000976562 324.240234375 598.400390625 298.444335938 598.400390625 c 0
 260.525390625 598.400390625 246.956054688 558.9375 236.858398438 501.669921875 c 2
EndSplineSet
EndChar

StartChar: f_f_l
Encoding: 81 64260 81
Width: 643
VWidth: 0
Flags: W
HStem: 0 21G<61.4814 142.212 266.062 346.882 466.52 547.162> 398 35.4102<68.9219 131.41 217.312 336 421.972 536.548> 598.4 35.1191<257.044 339.979 465.68 551.996>
LayerCount: 2
Fore
SplineSet
294.447265625 633.51953125 m 0
 344.671875 633.51953125 382.170898438 619.66796875 406.684570312 601.696289062 c 1
 437.922851562 627.350585938 469.318359375 633.51953125 509.327148438 633.51953125 c 0
 549.72265625 633.51953125 608.498046875 625.776367188 645.071289062 573.250976562 c 2
 646.545898438 571.1328125 l 1
 646.049804688 568.3203125 l 1
 547.162109375 7.5 l 1
 545.83984375 0 l 1
 538.33984375 0 l 1
 474.01953125 0 l 1
 466.51953125 0 l 1
 467.841796875 7.5 l 1
 536.547851562 398 l 1
 415.587890625 398 l 1
 346.881835938 7.5 l 1
 345.559570312 0 l 1
 337.969726562 0 l 1
 273.650390625 0 l 1
 266.061523438 0 l 1
 267.381835938 7.498046875 l 1
 336 398 l 1
 210.91796875 398 l 1
 142.211914062 7.5 l 1
 140.889648438 0 l 1
 133.389648438 0 l 1
 68.9794921875 0 l 1
 61.4814453125 0 l 1
 62.8017578125 7.498046875 l 1
 131.41015625 398 l 1
 70.0283203125 398 l 1
 62.5283203125 398 l 1
 63.1279296875 401.40234375 l 1
 64.716796875 410.41015625 l 1
 68.921875 433.41015625 l 1
 76.421875 433.41015625 l 1
 137.801757812 433.41015625 l 1
 149.837890625 501.669921875 l 2
 164.5859375 585.311523438 209.997070312 633.51953125 294.447265625 633.51953125 c 0
217.311523438 433.41015625 m 1
 342.385742188 433.41015625 l 1
 353.411132812 496.489257812 357.876953125 528.5546875 370.5625 554.220703125 c 1
 340.508789062 586.85546875 316.6640625 598.400390625 290.93359375 598.400390625 c 0
 253.015625 598.400390625 239.4453125 558.9375 229.34765625 501.669921875 c 2
 217.311523438 433.41015625 l 1
566.157226562 565.127929688 m 1
 545.791015625 596.220703125 524.359375 598.379882812 502.630859375 598.379882812 c 0
 468.708984375 598.379882812 445.453125 566.58203125 434.0078125 501.669921875 c 2
 421.971679688 433.41015625 l 1
 542.931640625 433.41015625 l 1
 566.157226562 565.127929688 l 1
EndSplineSet
EndChar
